<?xml version="1.0" encoding="utf-8"?>
<!-- Generator: Adobe Illustrator 26.3.1, SVG Export Plug-In . SVG Version: 6.00 Build 0)  -->
<svg version="1.1" id="Layer_1_xA0_Image_00000060714035337634381650000016751564873888974494_"
	 xmlns="http://www.w3.org/2000/svg" xmlns:xlink="http://www.w3.org/1999/xlink" x="0px" y="0px" viewBox="0 0 2161.9 1054.1"
	 style="enable-background:new 0 0 2161.9 1054.1;" xml:space="preserve">
<style type="text/css">
	.st0{fill:#1D2758;}
	.st1{fill:none;}
	.st2{fill:#991B1E;}
	.st3{fill:none;stroke:#1D2859;stroke-width:1.1788;stroke-linecap:round;stroke-linejoin:round;stroke-miterlimit:3.8636;}
	.st4{fill:none;stroke:#1D2859;stroke-width:1.2613;stroke-linecap:round;stroke-linejoin:round;stroke-miterlimit:3.8636;}
</style>
<path class="st0" d="M2161.4,774.5c-6.3-0.1-11.6,2-15.6,6.9c-2.2,2.7-4.4,5.5-6.3,8.5c-10,15.6-19.9,31.3-29.9,46.9
	c-1.6,2.5-2.4,5-2.4,8.1c0.1,13.9,0.1,27.8,0.1,41.7c0,3.7,0.2,7.3,1,11c1.2,5.5,4.3,8.8,9.8,9.8c1.4,0.3,2.8,0.6,4.5,1
	c-0.1,1-0.1,1.8-0.2,2.9c-1.3,0.1-2.4,0.3-3.5,0.3c-14.2,0-28.5,0-42.7,0c-0.8,0-1.6,0-2.4-0.1c-1.4-0.1-1.5-0.4-1.4-3.1
	c1.6-0.3,3.3-0.7,5-1c5.5-0.9,8.9-4.1,10.3-9.5c0.6-2.3,1-4.7,1.1-7.1c0.2-6.9,0.3-13.7,0.3-20.6c0-8.5-0.1-17,0-25.4
	c0-2.8-0.7-5.2-2.3-7.6c-9.8-15.2-19.5-30.4-29.3-45.6c-1.8-2.8-3.9-5.5-5.9-8.2c-3.7-5-8.6-8-14.8-8.8c-0.8-0.1-1.6-0.2-2.6-0.4
	c-0.1-0.9-0.1-1.8-0.2-2.9c1.1-0.2,2-0.4,2.9-0.4c13.1-0.4,46.7-0.2,51,0.4c0,0.8,0,1.7,0,2.8c-1.3,0.2-2.6,0.2-3.8,0.5
	c-2.3,0.5-4.7,0.9-6.9,1.9c-3,1.4-4,4-2.9,7.2c0.6,1.8,1.5,3.5,2.5,5.1c8.6,13.3,17.2,26.6,25.8,39.8c0.6,0.9,1.4,1.7,2.3,2.8
	c0.8-0.9,1.5-1.6,1.9-2.3c6.9-10.9,13.9-21.8,20.7-32.9c1.7-2.8,2.9-6,4.2-9.1c0.5-1.2,0.7-2.5,0.8-3.7c0.3-4.5-1.5-7.3-5.8-8.7
	c-0.9-0.3-1.9-0.4-3.1-0.7c-0.1-0.8-0.2-1.7-0.3-2.4c1.5-1.2,3-0.8,4.4-0.8c9.4,0,18.9,0,28.3,0c1.8,0,3.5-0.1,5.3-0.1
	C2161.4,771.9,2161.4,773.2,2161.4,774.5z"/>
<path class="st0" d="M1451.2,1053.8c-1.3-0.5-2.6-1-4-1.6c-2.3-0.9-4.4-1.9-6-3.8c-3.1-3.4-3.2-7.9,0.1-11.2c1.4-1.5,3.3-2.5,5-3.7
	c1.1-0.8,2.4-1.4,4-2.4c-1.6-0.9-2.9-1.6-4.1-2.3c-3.8-2.4-4.4-6-1.2-9.2c1.4-1.5,3.3-2.5,5-3.6c1-0.7,2.1-1.2,3.6-2.1
	c-1.5-0.8-2.6-1.5-3.7-2.1c-5.4-3-7.6-7.6-7.1-13.6c0.5-6,3.7-10.1,9.1-12.4c1.7-0.7,3.7-1.1,5.6-1.1c6.2,0,12.5,0.2,18.7,0.4
	c1.1,0,2.3,0,2.6,1.5c0.2,1.2-0.6,1.8-2.7,1.9c-1.9,0.2-3.8-0.2-5.9,0.7c0.6,1.3,1.2,2.4,1.7,3.6c5.1,11.3-3.2,20.4-11.6,21
	c-2.8,0.2-5.3,1-7.7,2.3c-1,0.5-1.9,1.2-2.8,1.9c-2.8,2.4-2.3,5.2,1.3,6.6c1.5,0.6,3.1,0.9,4.6,1.2c3.4,0.7,6.9,1.3,10.3,2
	c2,0.4,4.1,0.9,6,1.7c7.7,3.1,9.3,10.9,3.5,16.9c-2.6,2.7-5.9,4.4-9.4,5.6c-1.2,0.4-2.3,1-3.4,1.4
	C1458.9,1053.8,1455,1053.8,1451.2,1053.8z M1461.2,1050.3c1.3-0.1,2.6,0,3.8-0.2c3-0.4,6-1.3,8.3-3.3c3.3-2.9,3.1-7.4-0.5-9.8
	c-1.6-1-3.4-1.8-5.2-2.3c-3.5-0.9-7.2-1.6-10.7-2.4c-4.9-1.2-8.8,1-12.1,4.1c-2.5,2.3-2.4,6.3,0.1,8.6c1.5,1.4,3.3,2.5,5.2,3.3
	C1453.5,1049.9,1457.4,1050.4,1461.2,1050.3z M1448.9,1000.4c0,0.2,0,1.5,0.2,2.7c0.3,2.4,1.2,4.6,2.7,6.6c3.4,4.3,9.4,4.3,12.8,0
	c0.6-0.7,1.1-1.6,1.4-2.5c1.9-4.8,2.1-9.6,0.3-14.5c-0.2-0.6-0.5-1.2-0.8-1.7c-3.6-6.1-11.2-6-14.8,0
	C1449.1,993.5,1448.8,996.3,1448.9,1000.4z"/>
<path class="st0" d="M628.9,12.3c0-3.3,0-6,0-8.9c1-0.2,1.9-0.5,2.8-0.5c1.3-0.1,2.6,0,3.8,0c39.7,0,79.3,0,119,0
	c13.1,0,26.2,0.8,39.2,2.9c17,2.8,33.3,7.8,48.3,16.5c11.3,6.5,21.4,14.6,29.6,24.8c9.9,12.2,16,26.1,18,41.7
	c2,15.6,0.9,31-4.6,45.8c-4.6,12.3-12.1,22.4-22.3,30.7c-11.5,9.3-24.6,15.5-38.7,19.5c-11.1,3.2-22.4,5-33.9,6
	c-12.6,1.1-25.3,1.1-37.9,0.6c-9.7-0.4-19.4-1.6-29.2-2.3c-2.8-0.2-5.7-0.8-8.8-0.3c-0.1,1.4-0.4,2.6-0.4,3.8c0,6.6,0,13.1,0,19.7
	c0,25.3,0,50.6,0,75.8c0,9.1,0.7,18.2,2.8,27.1c0.7,2.9,1.7,5.8,2.8,8.6c2.9,7.4,8.4,12.3,15.8,15c4.5,1.7,9.3,2.3,14.1,2.8
	c1.1,0.1,2.2,0.2,3.5,0.4c0.7,3,0.6,5.7,0.1,8.8c-1,0.2-1.9,0.5-2.8,0.6c-1.3,0.1-2.6,0.1-3.8,0.1c-36.9,0-73.9,0-110.8,0
	c-2.1,0-4.1-0.1-6.2-0.2c-1-3.1-0.7-5.9-0.4-9c1-0.2,1.8-0.4,2.7-0.5c3.8-0.6,7.6-0.9,11.3-1.8c9.6-2.2,16.1-8.1,19.8-17.2
	c2.3-5.7,3.5-11.6,4.3-17.6c0.9-6.8,1-13.7,1-20.6c0-42.2,0-84.5,0-126.7c0-29.4,0-58.9,0-88.3c0-8.8-0.4-17.6-2-26.3
	c-0.8-4.6-2-9-3.9-13.3c-3.3-7.6-8.9-12.7-17-15.1c-3.4-1-6.8-1.7-10.4-1.9C633.2,12.8,631.3,12.5,628.9,12.3z M714.4,172.5
	c0.9,0.4,1.9,1,2.9,1.2c6.1,1.3,12.1,2.8,18.3,3.8c10.6,1.7,21.4,1.6,32.1,1.1c10.6-0.6,20.9-2.7,30.8-6.7
	c25.3-10.5,39.6-29.4,43.3-56.4c1.7-12.6,0.9-25.2-2-37.6c-3.4-14.6-10.1-27.6-20.6-38.4c-14.7-15-33-22.4-53.6-23.4
	c-16.1-0.7-32.3-0.3-48.4-0.3c-0.9,0-1.8,0.3-2.8,0.5c-0.1,1.7-0.2,3.1-0.3,4.5C713.5,70.3,713.7,167.8,714.4,172.5z"/>
<path class="st0" d="M1682.1,341.9c0.5,3,0.5,5.8,0,8.9c-1,0.2-2,0.4-2.9,0.5c-1.1,0.1-2.2,0-3.4,0c-33.8,0-67.5,0-101.3,0
	c-1.9,0-3.8-0.1-5.7-0.2c-1.2-3.1-0.9-5.9-0.4-9c1.2-0.2,2.4-0.3,3.6-0.5c5.1-0.6,10.2-1.1,15.2-1.8c1.7-0.2,3.4-0.9,5.1-1.4
	c6.1-2.1,9.8-6.4,11.4-12.6c0.6-2.6,0.9-5.4,1.2-8c0.1-1.3,0.1-2.6,0.1-3.8c0-37.3,0-74.6,0-111.8c0-5.5-0.5-10.8-1.8-16.2
	c-3.8-16.5-18.6-29.6-35.3-32.8c-13.2-2.5-25.4-0.3-36.9,6.4c-6.5,3.8-12.4,8.5-17.9,13.7c-5.7,5.4-10.7,11.4-15.6,17.5
	c-1.9,2.4-2.7,4.8-2.7,7.9c0.1,28.3,0,56.6,0.1,85c0,8,0,16,0.1,24c0.1,5.1,0.8,10.2,1.9,15.2c0.2,1.1,0.6,2.2,0.9,3.2
	c2,7.1,6.7,11.4,13.7,13.4c5,1.4,10.1,1.8,15.2,2.2c1.4,0.1,2.8,0.2,4.4,0.4c0.7,2.9,0.3,5.6,0.3,8.4c-1,0.3-1.8,0.8-2.7,0.9
	c-1.3,0.2-2.6,0.1-3.8,0.1c-33.4,0-66.9,0-100.3,0c-1.9,0-3.8-0.1-5.7-0.2c-1.5-3.2-0.8-6.1-0.5-9.2c4.6-0.4,8.9-0.6,13.1-1.2
	c3.3-0.5,6.6-1.2,9.8-2.3c4.9-1.6,8.2-4.9,9.5-10c0.9-3.6,1.9-7.1,2.3-10.8c0.6-5.4,1-10.8,1-16.3c0.1-41,0-81.9,0-122.9
	c0-5.1-0.5-10.2-1.7-15.2c-0.1-0.6-0.3-1.2-0.4-1.9c-1.8-6.8-6-11-12.9-12.8c-5.3-1.3-10.7-1.7-16.1-2.2c-1.4-0.1-2.8-0.2-4.3-0.3
	c-1-3-0.7-5.9-0.3-9c1-0.3,2-0.8,3.1-0.9c10.8-1.1,21.6-2.1,32.5-3.2c7.8-0.8,15.6-1.7,23.4-2.4c4.9-0.4,9.9-0.4,14.8-0.6
	c0.8,0,1.5,0.3,2.1,0.4c1.1,1.7,0.7,3.3,0.7,4.9c0,10.6,0,21.1,0,31.7c0,1.5-0.3,3.1,0.6,4.8c1.6-0.4,2.4-1.7,3.3-2.7
	c6.4-6.8,13.1-13.1,20.5-18.8c10.2-7.9,21.2-14.5,33.8-17.6c25.3-6.4,48.6-2.3,68.7,15.2c11.8,10.2,18.6,23.4,22,38.5
	c1.6,7.1,2.1,14.2,2.1,21.4c0,20.3,0,40.6,0,61c0,12.3,0,24.6,0,37c0,5.5,0.6,10.9,1.7,16.2c0,0.2,0.1,0.3,0.1,0.5
	c1.9,9.5,7.6,15.3,17.1,17.1c4.4,0.8,8.9,1.2,13.3,1.8C1679.4,341.8,1680.6,341.8,1682.1,341.9z"/>
<path class="st0" d="M1402.7,341.8c1.1,4.1,1.1,4.9,0.1,9c-0.8,0.2-1.7,0.4-2.6,0.5c-1.3,0.1-2.6,0.1-3.8,0.1
	c-33.4,0-66.9,0-100.3,0c-2.1,0-4.1-0.1-6.2-0.2c-1.1-3.1-0.7-5.9-0.4-9c1.3-0.2,2.5-0.3,3.7-0.5c5.1-0.6,10.2-1.1,15.2-1.8
	c1.9-0.3,3.7-1,5.5-1.6c5.8-2,9.2-6.1,10.9-11.8c1.1-3.7,1.3-7.6,1.5-11.4c0.1-1.4,0-2.9,0-4.3c0-35.5,0-71,0-106.5
	c0-5.4-0.3-10.8-1.4-16.2c-3.7-18.9-19.5-31.7-35.6-34.8c-13.1-2.5-25.4-0.4-37,6.3c-6.1,3.5-11.7,7.8-16.8,12.7
	c-6.4,6-12.1,12.7-17.6,19.7c-1.5,1.9-2,3.8-2,6.2c0.1,35.4,0.1,70.7,0.1,106.1c0,5.9,0.6,11.8,1.9,17.6c0.6,2.6,1.4,5.2,2.4,7.8
	c1.7,4.2,4.8,7.1,9,8.8c3.3,1.4,6.7,2.2,10.2,2.6c3.5,0.4,7,0.6,10.5,0.9c0.6,0.1,1.2,0.2,2.1,0.3c0.6,2.9,0.5,5.6,0.1,8.7
	c-1,0.2-1.9,0.5-2.8,0.6c-1.3,0.1-2.6,0.1-3.8,0.1c-33.1,0-66.2,0-99.3,0c-2,0-4.1-0.1-6.2-0.2c-1-3.1-0.7-5.9-0.3-9
	c1.3-0.2,2.5-0.3,3.7-0.5c4.8-0.6,9.5-1.1,14.3-1.7c0.8-0.1,1.6-0.4,2.3-0.6c6.8-1.8,11.1-6,12.7-12.9c1.3-5.5,2-11,2.3-16.6
	c0.2-3.5,0.2-7,0.2-10.6c0-39.7,0-79.3,0-119c0-4.8,0-9.6-1-14.3c-0.6-3.2-1.5-6.2-2.9-9.1c-1.6-3.1-4-5.3-7.2-6.7
	c-3.6-1.5-7.3-2.4-11.1-2.7c-3.7-0.4-7.3-0.6-11-0.9c-0.6,0-1.2-0.2-2.1-0.4c-0.6-3-0.6-6,0-9c0.8-0.2,1.6-0.6,2.4-0.7
	c6.8-0.7,13.7-1.4,20.5-2c8.7-0.9,17.5-1.9,26.2-2.6c7.3-0.6,14.7-1.1,22-1.5c1.4-0.1,2.8,0.1,4.1,0.2c1.4,1.6,0.9,3.3,0.9,4.8
	c0,10.6,0,21.1,0,31.7c0,1.6,0,3.2,0,4.5c1.2,0.9,1.8,0.4,2.4-0.2c1.9-1.9,3.8-3.9,5.7-5.9c7.8-7.9,16.1-15.1,25.5-21.1
	c10.2-6.5,21.1-11.4,33.2-13.2c38-5.7,70.9,15.3,81,50.4c2.6,9.2,3.4,18.5,3.4,28c0,31.2,0,62.4,0,93.6c0,6.1,0.2,12.2,1.4,18.1
	c0.2,0.9,0.5,1.9,0.7,2.8c2,8.8,7.6,13.9,16.2,15.7c4.4,0.9,8.8,1.3,13.3,1.9C1399.9,341.7,1401.1,341.7,1402.7,341.8z"/>
<path class="st0" d="M1112,298c0.2,1.1,0.3,1.7,0.3,2.3c0,2.2,0,4.5,0,6.7c-0.1,5.9,0.7,4.3-3.5,9.4c-5.5,6.7-11.5,12.9-18,18.6
	c-11.7,10.2-25,17.3-40.2,20.3c-25,4.9-49.6,3.7-73.6-5.3c-28.6-10.7-58-37.5-66.6-77c-1.9-8.9-2.7-18-2.7-27.2
	c0-15.7,2.1-31,8.1-45.5c11.7-28.6,31.4-49.8,59.9-62.3c10.9-4.8,22.5-7.1,34.4-7.6c12.6-0.5,24.9,0.5,36.8,4.9
	c4.8,1.8,9.6,3.7,14,6.1c12.7,6.9,23.4,16.2,32.2,27.6c10.8,13.9,15.7,29.9,15.3,47.4c0,0.8-0.2,1.6-0.3,2.6
	c-0.9,0.2-1.7,0.6-2.6,0.7c-1.8,0.1-3.5,0.1-5.3,0.1c-46.9,0-93.7,0-140.6,0c-1.3,0-2.6,0-3.8,0c-5.7,0-5.8,0.1-5.7,5.5
	c0.4,19.1,2.7,37.9,9.4,56c5.2,13.8,12.3,26.4,23.1,36.6c10.4,9.8,22,17.5,35.9,21.4c8.7,2.4,17.6,3.1,26.6,2
	c4.9-0.6,9.8-1.4,14.5-2.9c7.9-2.5,14.9-6.6,21.5-11.5c7.9-5.8,14.8-12.7,21.6-19.7c2.3-2.4,4.6-4.9,6.9-7.3
	C1110.3,299.2,1111,298.8,1112,298z M1068,209.4c0.2-0.7,0.4-1,0.4-1.3c0.5-11.3-1-22.4-5.8-32.7c-6.9-15-18-25.5-33.9-30.4
	c-10.9-3.4-22.1-3.5-33.1-0.9c-14.6,3.4-25.8,11.6-33.5,24.5c-7.2,12.1-10.6,25.3-11.5,39.2c0,0.6,0.2,1.2,0.4,1.9
	c0.7,0.2,1.3,0.4,1.9,0.4c37.9,0,75.8,0,113.6-0.1C1066.9,209.9,1067.4,209.6,1068,209.4z"/>
<path class="st0" d="M1096.2,486.7c0.6,4.8,0.6,8.9,0.1,12.8c-1.6,1.3-3.3,0.9-4.8,1c-7.8,0-15.7,0-23.5,0c-1.2,0-2.5-0.2-3.8,0.7
	c0.3,1.7,1.6,2.8,2.5,4.1c4.5,6.3,7.8,13.2,9.4,20.8c3.4,16.1,0,30.4-10.8,42.9c-3.4,3.9-7.1,7.3-11.4,10.2
	c-7.2,4.8-15.3,7.2-23.9,7.7c-12.3,0.7-22.8,5.6-32.5,12.8c-2,1.5-3.9,3.3-5.5,5.3c-3.5,4.4-3,10,1.3,13.7c1.8,1.5,4,2.7,6.2,3.5
	c4.7,1.5,9.5,2.8,14.3,3.8c11.4,2.4,22.9,4.4,34.3,6.8c6.7,1.4,13.4,3.1,20,5c6.7,1.9,12.7,5.3,18,9.8c6.6,5.6,9.8,12.8,10,21.5
	c0.2,11.2-3.8,20.6-11.3,28.7c-5,5.3-10.9,9.4-17.2,12.9c-9.7,5.4-20.3,8.6-31.3,10.1c-9.1,1.3-18.2,1.3-27.3,0.8
	c-8.8-0.5-17.4-2.3-25.6-5.6c-5.4-2.2-10.4-5-14.8-8.8c-6.2-5.3-10.1-11.8-10.9-20.1c-0.7-6.6,0.7-12.7,4.4-18.2
	c2.3-3.5,5.3-6.4,8.6-9c6.8-5.4,14.5-9.3,22.4-12.9c1.5-0.7,3.3-1.1,4.8-2.7c-0.6-0.4-1-0.9-1.5-1.1c-2.9-1-5.8-1.8-8.6-2.9
	c-4-1.6-7.7-3.9-10.9-6.9c-5.8-5.4-7-11.9-4.8-19.3c1.2-3.9,3.5-7.1,6.3-10.1c3.1-3.2,6.8-5.9,10.6-8.2c4.8-2.9,9.9-5.2,15.1-7.3
	c1.6-0.6,3.2-1.4,4.7-2c0.3-1.3-0.5-1.6-1.2-1.9c-3.4-1.4-6.9-2.5-10.2-4c-5.6-2.5-10.6-6-14.8-10.5c-7.3-7.7-11.2-17-12-27.6
	c-0.5-6.4-0.2-12.8,1.4-19.1c4.6-18.1,19.8-32.7,38.2-36.6c5.4-1.1,10.8-1.4,16.2-1.2c7,0.3,14.1,0.7,21.1,1c3.5,0.1,7,0.2,10.5,0.3
	c10.9,0,21.7,0,32.6,0C1092.3,486.7,1094,486.7,1096.2,486.7z M1034.1,708.8c6.2-0.1,12.5-0.1,18.6-1.3c7-1.4,13.6-3.6,19.5-7.7
	c2.3-1.6,4.6-3.5,6.5-5.6c6.4-7.4,8.1-20.5-3-28.7c-2.4-1.8-5.1-3.3-7.9-4.5c-3.5-1.5-7.1-2.8-10.8-3.9c-15-4.5-30.4-7.3-45.8-10
	c-0.9-0.2-1.9-0.2-2.8,0c-8.7,2.3-17.1,5.3-24.5,10.6c-2.6,1.9-4.9,4.1-6.9,6.6c-5.6,6.9-6.4,17.8,0.6,25.5c2.2,2.5,4.8,4.7,7.5,6.6
	c6.3,4.5,13.5,7.2,21,9.1C1015.3,707.9,1024.6,708.8,1034.1,708.8z M1055.5,535.8c-0.5-4.6-0.7-9.2-1.5-13.8
	c-1.2-7.3-3.9-14.2-8.7-20c-7.6-9.2-17.4-11.9-28.8-9.2c-7.2,1.7-12.4,6.3-16.5,12.3c-2.9,4.3-4.7,9.1-5.9,14.1
	c-2.3,9.8-2.3,19.6-0.6,29.5c1.1,6.3,3.1,12.4,6.5,17.9c2.8,4.6,6.4,8.4,11.1,11c9.5,5.3,24.4,4.5,33.8-6.7
	c3.4-4.1,5.7-8.9,7.3-13.9C1054.3,550.2,1055.2,543.1,1055.5,535.8z"/>
<path class="st0" d="M2157.4,486.9c0.2,4.7,0.5,8.8-0.2,12.7c-1.7,1.1-3.3,0.8-4.9,0.8c-7.4,0-14.7,0-22.1,0c-1.5,0-3.2-0.4-4.6,0.5
	c-0.4,1.6,0.8,2.4,1.5,3.3c3.9,5.3,7.1,11.1,8.9,17.4c6,21.2,0.5,39.1-16.1,53.6c-8.3,7.2-18,10.9-28.9,11.5
	c-12.6,0.7-23.4,5.8-33.3,13.4c-1.9,1.4-3.6,3.2-5,5.1c-3.1,4.2-2.6,9.3,1.2,13c1.9,1.8,4.1,3.1,6.6,3.8c4.8,1.4,9.5,2.8,14.3,3.8
	c11.4,2.4,22.9,4.4,34.3,6.8c6.6,1.4,13.1,3.1,19.5,4.8c6.2,1.7,11.8,4.8,16.9,8.7c9.3,7.3,12.7,16.9,11.3,28.4
	c-1.1,9.2-5.2,17.1-11.8,23.6c-9.5,9.5-20.9,15.7-33.7,19.4c-8.5,2.5-17.2,3.8-26,4c-9.6,0.2-19.2,0-28.6-2.1
	c-7.5-1.7-14.7-4.2-21.3-8.4c-3.6-2.2-6.8-4.8-9.6-7.9c-8.8-9.8-11-26.4,0.3-38.4c3.1-3.3,6.6-6.1,10.3-8.6c5.9-3.9,12.2-7,18.6-10
	c1.2-0.6,2.7-0.8,3.6-2.6c-0.6-0.3-1-0.7-1.5-0.9c-2.9-1-5.8-1.8-8.6-3c-3.9-1.5-7.4-3.8-10.4-6.7c-6.1-5.8-7.6-12.7-4.5-20.6
	c1.4-3.6,3.7-6.7,6.4-9.4c3.5-3.5,7.6-6.4,12-8.7c4.8-2.5,9.8-4.6,14.8-6.9c1.1-0.5,2.2-1.1,3.3-1.6c-0.4-1.6-1.6-1.7-2.7-2
	c-5.6-1.9-11-4.3-16-7.6c-7.5-5-13.2-11.6-16.5-20c-3-7.5-4.1-15.4-3.3-23.5c0.4-3.8,0.9-7.6,2-11.3c5-17.2,20-31.1,37.6-34.9
	c5.2-1.1,10.5-1.4,15.7-1.2c7.2,0.3,14.4,0.7,21.6,1c3.5,0.1,7,0.2,10.6,0.3c10.9,0,21.8,0,32.6,0
	C2153.4,486.7,2155.1,486.8,2157.4,486.9z M2095,708.8c6.2-0.1,12.4-0.1,18.6-1.3c7.1-1.4,13.8-3.8,20-7.8c3-1.9,5.6-4.3,7.6-7.2
	c4.7-6.9,6.1-19.4-4.2-26.9c-2.4-1.8-5.1-3.3-7.8-4.6c-3.5-1.5-7.1-2.8-10.8-3.9c-15-4.5-30.4-7.3-45.8-10c-1.1-0.2-2.3-0.2-3.3,0.1
	c-8.1,2.1-15.9,4.9-22.9,9.5c-3.1,2-5.9,4.4-8.1,7.3c-6.2,8.2-6,18.1,0.7,26c2.3,2.7,5,4.9,8,6.8c6.3,4.2,13.3,6.8,20.7,8.7
	C2076.5,707.8,2085.7,708.8,2095,708.8z M2053.7,534.7c-0.2,8.9,1.2,16.4,3,22.1c1.9,5.8,4.6,11.2,8.9,15.7c3.3,3.4,7.1,6,11.6,7.3
	c11.1,3.1,23.7-0.2,31.4-12.5c2.2-3.5,3.8-7.4,4.9-11.4c3.1-11.1,3.6-22.4,1.6-33.7c-1.3-7.5-4.1-14.4-8.9-20.4
	c-10.2-12.8-29.1-12.8-39.7-3c-4.7,4.3-7.9,9.6-9.9,15.6C2054.4,521.1,2053.5,528,2053.7,534.7z"/>
<path class="st0" d="M621.7,416.1c-0.4-1.9-0.7-3.3,0.6-4.9c1.2-0.1,2.6-0.2,4-0.2c52.9-0.4,137.1-0.1,140.7,0.5
	c0.2,0.5,0.5,1.1,0.5,1.6c0,9.8,0,19.5,0,29.3c0,0.5-0.2,0.9-0.3,1.4c-2.4,0.6-2.9,0.5-3.4-1.1c-0.5-1.5-0.8-3.1-1.4-4.6
	c-0.9-2.5-1.9-5.1-3-7.5c-2.1-4.5-5.7-7.2-10.5-8.3c-2-0.5-4.1-0.9-6.1-1.1c-5.1-0.4-10.2-0.8-15.3-0.8c-16.8-0.1-33.6,0-50.4,0
	c-1.7,0-3.5,0.1-5.4,0.2c-0.3,1.1-0.6,2-0.7,2.9c-0.1,1.1-0.1,2.2-0.1,3.4c0,25,0,49.9,0,74.9c0,1.9-0.2,3.8,0.3,5.4
	c1.4,1.5,3,1,4.3,1c10.7,0,21.4,0,32.1,0c7.2,0,14.4,0.1,21.6-0.1c2.9-0.1,5.7-0.4,8.5-1c5-1,8.3-4.1,9.9-8.8c1.1-3,1.8-6.1,2.8-9.3
	c1.6-0.9,3.3-0.9,4.9,0c0.2,0.5,0.4,1,0.4,1.4c0,14.7,0.1,29.4,0.1,44.1c0,0.6-0.2,1.2-0.3,1.7c-1.6,1.4-3.2,0.7-4.5,0.8
	c-1.5-1.3-1.5-3-2.1-4.5c-1.2-2.6-2.2-5.3-3.4-7.9c-1.5-3-4.1-4.8-7.4-5.6c-4.5-1.1-9.2-1.4-13.8-1.5c-16.3-0.1-32.6-0.1-48.9-0.1
	c-1.4,0-2.9-0.2-4.4,1.2c0,1.3-0.1,2.8-0.1,4.4c0,22.1,0,44.2,0,66.2c0,2.5,0.4,5.1,0.9,7.6c0.7,3.4,2.9,5.7,6.2,6.7
	c2.3,0.7,4.7,1.2,7.1,1.2c15.7,0.1,31.3,0.1,47-0.1c4.6-0.1,9.2-0.8,13.8-1.5c7.1-1.2,12.7-5.1,16.8-11c2.3-3.4,4.3-7.1,6.3-10.7
	c0.8-1.4,1.5-2.8,2.3-4.3c1-0.1,2-0.2,2.9-0.2c0.6,0,1.2,0.2,1.9,0.4c0,0.8,0.1,1.4,0,2c-2.8,11.5-5.6,22.9-8.3,34.1
	c-0.5,0.3-0.7,0.3-0.8,0.4c-0.1,0.1-0.3,0.2-0.4,0.2c-46.5,0.1-93.1,0.1-139.6,0.1c-1.3,0-2.6,0-3.8-0.1c-0.3,0-0.6-0.2-1.1-0.3
	c-0.9-1.3-0.7-2.8-0.1-4.6c2.3-0.4,4.6-0.7,7-1.2c7.4-1.3,12.1-5.6,13.7-12.9c0.8-3.4,1.3-6.9,1.7-10.4c0.3-3,0.2-6.1,0.2-9.1
	c0-41.8,0-83.5,0-125.3c0-5.6,0.1-11.2-1-16.7c-0.3-1.2-0.6-2.5-0.8-3.7c-1.7-7.5-6.7-11.3-14-12.6
	C626.3,416.7,624.1,416.4,621.7,416.1z"/>
<path class="st0" d="M881.6,613.7c0-1.8,0-3.2,0-4.8c1.5-0.1,2.7-0.2,3.9-0.4c3.3-0.6,6.6-1,9.9-1.8c3.9-1.1,6.2-3.9,6.9-7.8
	c0.5-2.3,0.8-4.7,0.8-7.1c0.1-21.4,0.1-42.9,0-64.3c0-3-0.3-6.1-1-9c-2.5-10.2-9.1-16.7-19.1-19.5c-7.6-2.1-14.9-1.2-21.8,2.6
	c-2.8,1.5-5.5,3.3-8,5.3c-4.9,3.9-9.1,8.6-12.9,13.5c-1.2,1.6-1.8,3.3-1.8,5.3c0.1,20.8,0,41.6,0.1,62.4c0,3.2,0.5,6.4,1.1,9.5
	c1.1,5.8,4.5,9.4,10.5,10.3c3,0.4,6,0.8,8.9,1.2c0.6,2.3,0.6,2.3,0.1,4.5c-3.8,0.7-60.1,0.7-64.8,0c-0.6-1.4-0.6-2.9,0-4.7
	c1.4-0.1,2.9-0.1,4.2-0.4c3-0.5,6-1,8.9-1.8c2.8-0.8,4.8-2.8,5.4-5.6c0.8-3.6,1.4-7.2,1.9-10.8c0.3-1.9,0.1-3.8,0.1-5.8
	c0-23.4,0-46.7,0-70.1c0-3.2-0.4-6.4-0.9-9.5c-0.8-5.1-3.8-8.3-9.1-9.2c-2.2-0.3-4.4-0.6-6.6-0.9c-1.2-0.1-2.5-0.2-3.7-0.3
	c-0.9-1.7-0.8-3.2-0.2-4.9c0.7-0.2,1.5-0.6,2.2-0.7c13.1-1,26-3.2,39.2-3.4c0.8,0,1.5,0.3,2.5,0.5c0.8,7.7-0.2,15.4,0.5,22.8
	c1.3,0.6,1.8-0.1,2.3-0.7c2.8-2.6,5.5-5.4,8.3-7.9c5.2-4.6,10.9-8.4,17.3-11.1c9.8-4.2,19.9-4.9,30-2c14.8,4.4,24.2,14.5,28.2,29.4
	c1.4,5.1,1.8,10.4,1.8,15.7c0,18.4,0,36.8,0,55.2c0,3.2,0.3,6.4,0.8,9.5c1,6.3,4.7,9.9,11,10.9c2.8,0.4,5.7,0.8,8.5,1.2
	c0.8,2,0.8,2,0.4,4.7c-0.8,0.1-1.8,0.4-2.7,0.4c-20.2,0-40.3,0-60.5,0C883.7,614,882.9,613.9,881.6,613.7z"/>
<path class="st0" d="M1347.1,609c0,1.6,0,2.9,0,4.5c-1.1,0.2-2,0.4-2.9,0.4c-20.2,0-40.3,0-60.5,0c-0.8,0-1.6-0.1-2.3-0.2
	c-1.1-1.6-0.7-3.1-0.3-4.8c3.3-0.4,6.4-0.8,9.6-1.2c1.3-0.2,2.5-0.5,3.7-0.9c4.1-1.2,6.5-4,7.3-8.1c0.4-2.2,0.8-4.4,0.8-6.6
	c0.1-21.8,0.1-43.5,0-65.3c0-3-0.3-6.1-1.1-9c-2.6-10-9.2-16.3-19-19c-7.6-2.1-14.9-1.1-21.8,2.6c-4.3,2.3-8.2,5.1-11.5,8.5
	c-3,3.1-5.8,6.4-8.7,9.6c-1.9,2-2.5,4.3-2.4,7c0.1,4.3,0,8.6,0,13c0,14.9,0,29.8,0,44.6c0,4,0,8,0.9,11.9c0.2,1.1,0.5,2.2,0.8,3.3
	c1.2,4.5,4.2,7.1,8.6,8.1c2.3,0.5,4.7,0.8,7.1,1.1c1.1,0.2,2.2,0.2,3.3,0.3c0.7,1.7,0.7,3.2,0.1,4.7c-4.1,0.7-60.5,0.7-64.7,0.1
	c-0.6-2.2-0.6-2.2,0-4.7c0.8-0.1,1.8-0.2,2.7-0.3c2.2-0.3,4.5-0.4,6.6-0.9c6.4-1.2,8.9-3.6,9.9-10c0.6-3.6,1-7.3,1-11
	c0.1-24.6,0.1-49.3,0-73.9c0-3-0.5-6.1-1.1-9c-0.9-4.3-3.6-7.1-8-8c-2.3-0.5-4.7-0.7-7.1-1c-1.4-0.2-2.8-0.3-4.5-0.4
	c-0.1-1.6-0.2-3-0.3-4.6c1.2-0.4,2.2-0.9,3.2-1c7.5-0.8,15-1.5,22.4-2.2c4-0.4,8-0.8,11.9-1.1c2-0.1,4.1,0,6.4,0
	c0.2,1.3,0.5,2.4,0.5,3.5c0.1,5.4,0,10.9,0,16.3c0,1.2,0.2,2.4,0.3,3.6c1.7,0.3,2.2-0.8,3-1.5c4-3.6,7.9-7.5,12.2-10.8
	c6.3-5,13.4-8.7,21.4-10.3c26.3-5,47.3,11.3,50.5,35.3c0.5,3.9,0.7,8,0.8,11.9c0.1,17.8,0,35.5,0,53.3c0,3.7,0.1,7.3,1,11
	c1.3,5.4,4.6,8.7,9.9,9.8C1340.1,608.2,1343.3,608.5,1347.1,609z"/>
<path class="st0" d="M1920.9,608.8c0.1,1.7,0.1,3.1,0.2,4.3c-1.9,1.3-3.7,0.8-5.4,0.8c-15.5,0-31,0-46.5,0c-3.4,0-6.7,0-10.1,0
	c-1.1,0-2.2-0.2-3.5-0.3c0-1.6,0-3,0-4.6c1.1-0.2,2.2-0.3,3.3-0.5c2.8-0.4,5.7-0.7,8.5-1.4c3.9-0.9,6.3-3.5,7.3-7.4
	c1.2-4.7,1.5-9.5,1.5-14.3c0.1-24,0.1-48,0-72c0-3.2-0.5-6.4-1.1-9.5c-0.9-4.5-3.7-7.3-8.3-8.2c-2.2-0.4-4.4-0.7-6.6-1
	c-1.4-0.2-2.8-0.2-4.1-0.4c-0.8-1.8-0.8-3.3-0.1-5c0.5-0.2,1.1-0.6,1.7-0.6c12.2-1.2,24.5-2.4,36.8-3.5c1.4-0.1,2.9,0.1,4,0.1
	c1.6,1.3,1.4,2.8,1.4,4.2c0,5.3,0,10.6,0.1,15.8c0,1.2-0.4,2.6,1.1,3.7c1-0.9,2.1-1.9,3.1-2.9c3.9-4,8.1-7.8,12.7-11
	c5.9-4.2,12.3-7.5,19.4-9c25.5-5.3,46.2,9.9,50.7,32.2c0.9,4.4,1.1,8.9,1.1,13.4c0,17.6,0,35.2,0,52.8c0,3.3,0.3,6.7,0.6,10
	c0.1,1.3,0.5,2.5,0.8,3.7c1.1,4.9,4.4,7.7,9.1,8.8c2.3,0.6,4.7,0.8,7.1,1.1c0.9,0.1,1.9,0.2,2.8,0.3c1.1,1.6,1,3.1,0.2,4.8
	c-0.7,0.1-1.5,0.3-2.2,0.4c-9.3,0.4-59.1,0.1-62.8-0.4c-0.7-2.2-0.7-2.2-0.2-4.7c1.2-0.1,2.4-0.2,3.6-0.4c2.5-0.3,5.1-0.5,7.6-1.1
	c6.1-1.4,8.9-4.8,9.5-11.1c0.1-1.4,0.2-2.9,0.2-4.3c0-21.6,0-43.2,0-64.8c0-2.7-0.1-5.5-0.6-8.1c-2.3-12.1-12.4-20.4-25.1-21.3
	c-5.4-0.4-10.5,0.8-15.3,3.2c-4.2,2-8,4.7-11.3,8c-3.5,3.5-6.7,7.3-10,10.9c-1.4,1.5-2,3.2-1.9,5.2c0,1,0,1.9,0,2.9
	c0,18.1,0,36.2,0,54.2c0,3.4,0.1,6.7,0.4,10.1c0.2,2.2,0.6,4.4,1.2,6.6c1.2,4.6,4.2,7.4,8.9,8.5c2.2,0.5,4.4,0.7,6.6,1
	C1917.9,608.7,1919.1,608.7,1920.9,608.8z"/>
<path class="st0" d="M2016.7,911.4c-1.5-1.9-3-3.5-4.3-5.4c-5.3-8-10.7-15.9-15.9-24c-4.8-7.4-9.4-14.9-14.8-21.8
	c-1.6-2-3.2-4-5.1-5.8c-5.5-5.4-12-8.4-19.8-8.3c-3.6,0-7.3-0.2-11.2,0.2c-0.2,1.3-0.5,2.3-0.5,3.4c0,12.8,0,25.6,0,38.4
	c0,3.5,0.6,7,1.6,10.4c1.3,4.8,4.5,7.6,9.3,8.7c1.4,0.3,2.8,0.6,4.1,0.9c0.9,2.6,0.6,3.2-1.5,3.3c-0.8,0.1-1.6,0-2.4,0
	c-13.6,0-27.2,0-40.8,0c-1.3,0-2.5-0.1-4-0.2c-0.1-1-0.2-1.9-0.3-3c1.9-0.4,3.6-0.8,5.3-1.1c4.7-1,7.7-3.7,8.9-8.4
	c0.5-1.8,0.9-3.7,1.1-5.6c0.3-4,0.6-8,0.6-12c0-27,0-54.1,0-81.1c0-4-0.2-8-0.6-12c-0.2-2-0.7-4.1-1.3-6.1c-1.2-3.6-3.6-6-7.4-6.9
	c-2-0.5-4-0.8-6.1-1.2c-0.8-0.8-0.7-1.7-0.2-2.9c1.3-0.1,2.7-0.2,4.1-0.2c18.4,0,36.8,0,55.2,0c7.4,0,14.6,1.3,21.5,4.1
	c6,2.4,11.2,6.1,15.5,11.1c4.8,5.7,7.5,12.3,7.6,19.7c0,3-0.1,6.1-0.6,9.1c-1.5,9-6.4,15.9-14.1,20.8c-3,1.9-6.2,3.2-9.4,4.8
	c-1.3,0.6-2.6,1.1-4.3,1.8c0.9,0.9,1.5,1.7,2.2,2.2c5.9,4.5,10.8,10,14.8,16.2c3.9,5.9,7.6,11.8,11.3,17.8c4,6.5,8.2,13,13,19
	c3.9,4.9,8.5,8.7,14.7,10.2c2.1,0.5,2.1,0.8,1.5,3.6c-0.4,0.1-0.9,0.3-1.3,0.3C2034.5,911.4,2025.8,911.4,2016.7,911.4z
	 M1945.8,775.9c-0.8,1.8-0.5,3.6-0.5,5.3c0,17.3,0,34.5,0,51.8c0,1.6-0.1,3.2,0,4.8c0.1,0.9,0.4,1.8,0.7,2.9
	c5.3,0.3,10.4,0.2,15.5,0.1c3.3-0.1,6.7-0.2,10-0.9c12-2.4,20-9.4,23.5-21.3c0.7-2.3,1.1-4.7,1.3-7c0.9-11-2-20.5-10.7-27.9
	c-4.9-4.1-10.6-6.5-16.8-7.5c-7-1.2-14-0.7-21-0.7C1947,775.5,1946.4,775.8,1945.8,775.9z"/>
<path class="st0" d="M1377.2,908.2c0.3,3,0.1,3.1-1.7,3.3c-0.6,0-1.3,0-1.9,0c-14.1,0-28.2,0-42.2,0c-1.1,0-2.2-0.2-3.5-0.2
	c-0.1-0.9-0.2-1.6-0.3-2.3c1.4-1.3,3.1-1.2,4.6-1.5c5.5-1,8.8-4.1,10-9.6c1-4.6,1.3-9.2,1.3-13.8c0-19.2,0-38.4,0-57.6
	c0-9.3,0.1-18.6,0-27.8c0-3.7-0.2-7.4-0.6-11c-1.1-9.2-4.6-12.3-12.9-13.2c-0.6-0.1-1.2-0.2-1.9-0.3c-0.2-0.5-0.4-1-0.4-1.4
	c0-0.5,0.2-0.9,0.3-1.6c1.4-0.1,2.8-0.2,4.2-0.2c18.2,0,36.5,0,54.7,0c7.4,0,14.6,1.2,21.6,3.9c5.9,2.3,11,5.8,15.3,10.5
	c5.2,5.8,8,12.7,8.1,20.5c0,2.7,0,5.5-0.4,8.1c-1.5,9.2-6.2,16.4-14,21.4c-3.2,2-6.8,3.5-10.2,5.2c-1.1,0.5-2.2,1-3.7,1.7
	c1.1,1,1.8,1.8,2.7,2.5c4.8,3.8,9,8.1,12.5,13.2c4.2,6.2,8.3,12.6,12.2,18.9c4.2,6.8,8.5,13.6,13.4,19.9c4,5.2,8.7,9.3,15.3,10.9
	c0.7,0.2,1.4,0.8,1.8,1.4c0.3,0.4,0.1,1.2,0.1,1.7c-3.6,1-15.6,1.2-28.2,0.6c-1.2-1.4-2.6-2.9-3.8-4.6c-5.5-8.2-11-16.5-16.5-24.8
	c-4.8-7.2-9.6-14.4-14.5-21.4c-1.6-2.3-3.6-4.5-5.7-6.5c-5.3-5-11.6-7.9-19-7.9c-2.9,0-5.8,0-8.6,0c-0.9,0-1.8,0.2-3,0.4
	c-0.1,1.3-0.4,2.3-0.4,3.4c0,12.6,0,25.3,0,37.9c0,3.7,0.6,7.3,1.6,10.9c1.4,4.8,4.6,7.5,9.4,8.5
	C1374.1,907.6,1375.6,907.8,1377.2,908.2z M1362.4,840.6c2.8,0.1,5.3,0.2,7.8,0.2c5.7,0,11.5,0.3,17.2-0.8
	c12.7-2.5,20.8-9.8,24.3-22.3c0.6-2,0.9-4.1,1-6.1c0.8-10.2-1.6-19.3-9.3-26.6c-5.2-4.9-11.3-7.7-18.3-8.8c-7-1.2-14-0.7-21-0.7
	c-0.6,0-1.2,0.3-2,0.5c-0.1,1.2-0.4,2.2-0.4,3.3C1361.1,799.8,1361.4,836,1362.4,840.6z"/>
<path class="st0" d="M1022.5,911.5c0-1.3,0-2.1,0-2.8c0.3-0.2,0.6-0.5,0.9-0.6c1.6-0.4,3.1-0.6,4.7-1c3.8-1,6.7-3.2,7.9-7
	c0.8-2.7,1.5-5.6,1.8-8.4c0.4-3.2,0.3-6.4,0.3-9.6c0-27.4,0-54.7,0-82.1c0-3.4,0-6.7-0.2-10.1c-0.2-2.4-0.6-4.8-1.2-7.1
	c-1.2-4.2-3.9-6.9-8.2-7.8c-1.9-0.4-3.7-0.8-5.8-1.2c-0.1-0.8-0.1-1.6-0.2-2.6c1.1-0.2,2-0.5,2.8-0.5c18.4,0,36.8-0.1,55.2,0.1
	c7.7,0.1,15.2,1.6,22.4,4.6c4.3,1.8,8.2,4.3,11.7,7.4c12.5,11.1,12.9,33.3-1,44.6c-3.9,3.1-8.2,5.5-12.8,7.5
	c-1.4,0.6-3.2,0.7-4.2,2.4c1.3,1.1,2.9,1.2,4.3,1.7c8.1,2.4,15.2,6.6,21,12.8c6.5,7,10,15.2,10.2,24.7c0.2,10.6-4,19.2-12.5,25.7
	c-6.2,4.6-13.2,7.2-20.7,8.3c-4.3,0.6-8.6,0.9-12.9,0.9c-19.2,0.1-38.4,0-57.6,0C1026.5,911.5,1024.8,911.5,1022.5,911.5z
	 M1056.8,841.5c-0.7,1.7-0.5,3.4-0.5,5.2c0,10.9,0,21.7,0,32.6c0,3.7-0.1,7.4,0.3,11c0.3,3.1,1,6.3,1.9,9.3c0.8,2.9,3,4.9,5.9,5.8
	c1.7,0.5,3.4,0.9,5.1,1c5.3,0.1,10.5,0.1,15.8,0c12.4-0.3,21.9-9.8,24.5-20.7c1-4.3,1.2-8.5,0.9-12.8c-0.7-10-4.9-18-13-24
	c-4-3-8.5-5-13.4-6.2c-8.6-2.2-17.4-2.1-26.2-1.7C1057.7,841,1057.3,841.3,1056.8,841.5z M1056.9,835.6c0.7,0.2,1.2,0.4,1.6,0.4
	c5.4,0,10.9,0.2,16.3-0.1c5-0.3,9.8-1.4,14.3-3.7c7.2-3.6,12.3-9.1,14.4-17c1.4-5.1,1.6-10.3,0.7-15.6c-1.8-10.5-7.6-17.7-17.6-21.5
	c-2.5-0.9-5.2-1.5-7.9-2c-6.6-1.2-13.4-0.7-20.1-0.7c-0.6,0-1.2,0.3-1.9,0.5c-0.1,1.2-0.3,2.2-0.4,3.3
	C1055.8,799.4,1056.1,831.1,1056.9,835.6z"/>
<path class="st0" d="M204.3,843.7c-0.1,1.8-0.2,3.1-0.2,4.4c0,11.8-0.1,23.7,0,35.5c0,3.2,0.5,6.4,1,9.5c1,6.5,4.9,10.1,11.4,11.1
	c0.8,0.1,1.6,0.2,2.7,0.4c0.1,0.9,0.3,1.7,0.4,2.8c-1,0.2-1.7,0.5-2.5,0.5c-14.5,0-29.1,0-43.6,0c-0.5,0-1,0-1.4-0.1
	c-1.2-0.1-1.9-0.8-1.8-1.8c0.1-0.9,0.5-1.5,1.4-1.6c0.9-0.1,1.9-0.2,2.9-0.3c5.4-1,9.2-3.9,10.1-9.4c0.7-4.2,1.3-8.5,1.4-12.8
	c0.2-16.8,0.1-33.6,0.1-50.4c0-11.8,0.1-23.7,0-35.5c0-3.7-0.4-7.3-0.7-11c0-0.3-0.1-0.6-0.1-1c-1.5-7.7-4.3-10.2-11.5-11.5
	c-0.9-0.2-1.9-0.2-2.8-0.3c-0.3-0.3-0.6-0.6-0.6-0.8c-0.1-0.6,0-1.2,0-2c1-0.2,1.9-0.4,2.9-0.4c19.2,0,38.4-0.1,57.6,0
	c7.4,0,14.6,1.6,21.4,4.7c5.6,2.6,10.5,6.1,14.3,11c4.3,5.4,6.7,11.6,6.8,18.5c0.1,3.5,0,7-0.8,10.5c-1.7,7.5-5.7,13.4-11.9,18
	c-3.4,2.5-7.1,4.4-10.9,5.9c-1.3,0.5-2.6,1.1-4.3,1.8c0.8,0.9,1.4,1.7,2.1,2.3c5.8,4.4,10.5,9.8,14.5,15.8c3.6,5.5,7,11.1,10.6,16.6
	c3.6,5.6,7.4,11.2,11.1,16.8c0.8,1.2,1.8,2.3,2.6,3.4c4,5.3,9.1,8.9,15.9,10.3c0.1,0.7,0.4,1.5,0.3,2.2c-0.1,0.9-1,1.1-1.9,1.1
	c-2.1,0-4.2,0.1-6.2,0.1c-6.5,0-13.1,0-19.8,0c-1.6-2-3.3-3.9-4.8-6c-5.1-7.6-10-15.2-15.1-22.8c-4.4-6.7-8.8-13.3-13.4-19.9
	c-1.8-2.6-3.9-5-6.2-7.3c-5.5-5.6-12.2-8.5-20.2-8.5c-2.6,0-5.1,0-7.7,0C206.6,843.4,205.7,843.6,204.3,843.7z M204.5,838
	c7.9,0,15.2,0.3,22.5-0.2c1.6-0.1,3.2-0.5,4.7-0.9c11.5-3.1,18.8-10.3,21.8-21.9c1-3.9,1.2-7.9,1-11.9c-0.4-8.2-3.6-15.1-9.7-20.7
	c-5-4.5-10.9-7.1-17.5-8.2c-7-1.2-14-0.8-21-0.7c-0.6,0-1.2,0.4-1.7,0.6c-0.7,4.4-1,39.3-0.5,60C204.2,835.3,204.3,836.3,204.5,838z
	"/>
<path class="st0" d="M1809.3,914.8c-11.4,0.1-24.8-3.1-36.8-10.9c-16-10.4-27.4-24.4-32.4-43c-4-14.7-4-29.5,0.9-44
	c8.2-24.2,25.1-39.8,49.4-46.8c17.5-5,35.3-4.5,52.2,2.8c21.8,9.4,36.9,25.4,42.6,48.7c10.9,44-15.7,78.5-48,89.5
	C1829,913.8,1820.7,914.9,1809.3,914.8z M1866.2,841c0.2-7.3-0.5-14.7-2.1-22.1c-2.1-9.5-5.6-18.4-11.3-26.2
	c-6.6-9.1-15-15.6-25.9-18.8c-6.1-1.8-12.3-2-18.5-1.6c-9.7,0.6-18.4,3.8-26.1,9.8c-6,4.7-10.8,10.5-14.4,17.1
	c-5.1,9.2-7.7,19.2-8.8,29.7c-0.8,7.8-0.8,15.6,0,23.5c1,9.9,3.4,19.5,7.9,28.5c3.9,7.6,8.9,14.4,15.8,19.7c9.1,7.1,19.6,9.9,31,9.6
	c12.7-0.4,23.7-4.8,32.7-13.9c6.1-6.2,10.8-13.5,14.1-21.6C1864.8,863.9,1866.5,852.7,1866.2,841z"/>
<path class="st0" d="M1228.4,914.8c-15.2,0.1-29.6-3.6-42.2-12.7c-14.7-10.4-25.2-24-29.8-41.6c-3.8-14.6-3.8-29.2,1-43.5
	c8.1-24.2,25-39.8,49.4-46.9c17.5-5.1,35.3-4.5,52.2,2.7c21.8,9.3,36.9,25.3,42.7,48.6c9.8,39.2-10.3,73.2-42.5,87.5
	C1249.4,913.3,1239.2,914.9,1228.4,914.8z M1282.6,841.1c0.2-7.4-0.5-14.8-2.1-22.2c-2.1-9.5-5.6-18.4-11.3-26.2
	c-6.6-9.1-15-15.6-25.9-18.8c-5.9-1.7-12-1.9-18.1-1.6c-10.2,0.6-19.3,4-27.3,10.4c-5.7,4.6-10.2,10.1-13.7,16.5
	c-5.1,9.2-7.7,19.2-8.8,29.7c-0.8,7.7-0.8,15.3-0.1,23c1,10,3.3,19.5,7.8,28.5c3.8,7.7,8.8,14.5,15.6,19.8c9,7.2,19.4,10.1,30.9,9.9
	c13.5-0.3,24.9-5.1,34.1-15c5.6-6,10-12.9,13.1-20.5C1281.2,863.9,1282.9,852.7,1282.6,841.1z"/>
<path class="st0" d="M1481.8,537.1c-1.9,0-3.6,0.1-5.4,0.1c-26.7,0-53.4,0-80.1,0c-1.9,0-3.8-0.3-5.8,0.5c-0.2,0.9-0.6,1.8-0.5,2.7
	c0.3,12.4,1.9,24.5,6.8,36.1c4.5,10.4,11.4,18.7,20.9,25c15,9.9,34.4,9.3,48.5-1.3c5.1-3.9,9.7-8.3,14.1-13c1.1-1.1,2.2-2.2,3.4-3.4
	c1.4,5.2,1.3,6.8-1.4,9.9c-3.4,3.8-6.9,7.5-10.7,11c-6.8,6.2-14.8,10-23.8,11.7c-13.3,2.5-26.5,2.2-39.3-2.4
	c-23.3-8.3-37.6-24.7-42.2-49.1c-2.1-11.2-1.3-22.4,1.8-33.3c4.8-16.5,14.8-29.2,29.4-38.3c10.1-6.2,21.3-8.5,33-8.1
	c18.6,0.6,32.9,9.4,43.8,24c5.5,7.3,7.6,15.8,7.9,24.7C1482.4,535,1482,536,1481.8,537.1z M1390.6,531.6c1.7,0.1,3.1,0.2,4.5,0.2
	c5.3,0,10.6,0,15.8,0c14.2,0,28.5,0,42.7,0c1.7,0,3.5,0.5,5.2-0.8c0.7-3.6,0.2-7.2-0.5-10.9c-3.3-17.5-17-28.7-34.7-28
	c-12.4,0.5-22,6.1-27.9,17.3c-2.6,5-4.3,10.3-5,15.9C1390.3,527.3,1389.9,529.2,1390.6,531.6z"/>
<path class="st0" d="M1625.9,537.2c-6.2,0-12.2,0-18.3,0c-6.1,0-12.2,0-18.2,0c-5.9,0-11.8,0-17.8,0c-6.1,0-12.2,0-18.2,0
	c-6.1,0-12.1,0-18.3,0.1c-0.3,1-0.7,1.7-0.7,2.4c-0.3,13.6,1.9,26.7,7.7,39.2c5,10.8,12.8,19.2,23.3,24.6
	c15.3,7.9,30.2,6.8,44.4-2.9c5.3-3.6,9.8-8.2,14.3-12.8c1.2-1.2,2.4-2.5,3.7-3.8c1.6,4.5,1.4,7-1.2,9.8c-3.4,3.8-7,7.5-10.7,11
	c-6.8,6.2-14.8,10-23.8,11.7c-12.9,2.4-25.9,2.2-38.4-2.1c-24.5-8.5-39.3-25.6-43.3-51.4c-1.7-11.1-1-22.4,2.7-33.2
	c6.6-19.2,19-33.2,38-40.7c12.4-4.9,25.3-5.2,38.1-1.4c12.9,3.8,22.9,11.9,30.5,22.9c4.8,7,6.9,15.1,7,23.6c0,0.5,0,1-0.1,1.4
	C1626.4,535.9,1626.3,536.2,1625.9,537.2z M1602.9,531.4c0.1-1.2,0.3-1.9,0.3-2.7c0-1.8,0-3.5-0.2-5.3c-1.5-15.5-12-28.9-29-31
	c-11.1-1.4-26.3,1.6-34.4,17.4c-3,5.9-4.7,12.2-5.2,18.8c-0.1,0.9,0.2,1.8,0.2,2.7c0.8,0.2,1.2,0.5,1.7,0.5c21.4,0,42.8,0,64.2,0
	C1601.2,531.8,1601.9,531.6,1602.9,531.4z"/>
<path class="st0" d="M137.8,768c0,13.3,0,26.2,0,39.5c-1,0.1-1.8,0.2-2.9,0.3c-0.4-1.4-0.8-2.6-1.1-3.8
	c-2.6-11.6-9.3-20.2-19.2-26.4c-7.9-5-16.6-7.2-26-7.3c-9.9-0.1-19,2.3-27.1,8.1c-9.3,6.6-15.4,15.6-19.5,26.1
	c-2.6,6.8-4,13.8-4.6,21c-1,13.2,0.1,26.2,4.5,38.8c4.2,11.7,10.8,21.8,20.4,29.7c9.1,7.5,19.6,11.3,31.3,11.4
	c4.2,0.1,8.3,0.1,12.4-1.1c2-0.6,4-1.3,5.8-2.2c3.7-2,6.1-5.1,6.6-9.5c0.1-0.8,0.3-1.6,0.3-2.4c0.1-8,0.4-16-0.6-24
	c-0.3-2-0.8-4.1-1.4-6.1c-1.7-5.1-5.4-7.8-10.7-8.2c-1.8-0.2-3.5-0.2-5.3-0.3c-0.6-0.1-1.3-0.1-1.8-0.4c-0.3-0.2-0.7-0.8-0.7-1.1
	c0.1-0.5,0.4-1.4,0.7-1.5c1.4-0.3,2.8-0.4,4.3-0.4c10.1,0,20.2,0,30.2,0c5.1,0,10.2,0,15.4,0c1.3,0,2.6,0.1,3.8,0.2
	c0.9,0.1,1.4,0.8,1.3,1.7c-0.1,0.5-0.5,1.3-1,1.4c-0.9,0.3-1.9,0.3-2.8,0.5c-1.9,0.4-3.7,0.8-5.5,1.5c-2.8,1.1-4.7,3.2-5.9,6
	c-1.4,3.1-1.9,6.4-1.9,9.8c0,6.7,0,13.4,0,20.2c0,5.3,0,10.6,0,15.8c0,2.5-0.4,3-3,3.4c-4.3,0.6-8.5,1.3-12.8,1.6
	c-9.4,0.6-18.8,1.6-28.3,1.1c-11.7-0.6-23.2-2.2-34.2-6.6c-15.8-6.3-27.9-16.6-35.5-32c-4-8-5.9-16.5-6.4-25.4
	c-0.6-11.8,0.6-23.4,4.9-34.4c9-23.3,25.4-38.7,49.7-45.5c11.3-3.2,22.8-2.8,34.2,0c5.1,1.2,10.2,2.5,15.4,3.8
	c1.4,0.3,2.8,0.5,4.3,0.6c3.3,0.3,6.4-0.4,8.5-3.3C134.5,767,136,766.9,137.8,768z"/>
<path class="st0" d="M1693.2,512.5c2.1-1.7,3.3-2.7,4.5-3.6c6.8-5.3,13.5-10.8,20.4-15.9c2.9-2.2,6.3-3.8,9.6-5.4
	c4.8-2.5,9.9-2.6,15-1.5c5.9,1.3,11,4.2,15.4,8.4c0.2,0.2,0.3,0.6,0.4,0.8c-1.4,4.7-7.1,17.8-9.2,21.2c-1.2-0.5-2.5-1-3.8-1.7
	c-5-2.6-10-5-15.4-6.7c-1.5-0.5-3-1-4.6-1.3c-5.2-1.1-10.1-0.7-15,1.7c-6.1,3-11.3,7.2-16.2,11.8c-1,0.9-1.5,2-1.5,3.4
	c0,1,0,1.9,0,2.9c0,20.8,0,41.6,0,62.4c0,2.9,0.3,5.7,0.7,8.6c0.7,5.8,4.3,9.1,9.9,10.1c3.1,0.6,6.3,0.9,9.7,1.4
	c1.1,1.2,0.6,2.8,0.3,4.6c-1,0.1-2.1,0.4-3.2,0.4c-19.5,0-39,0-58.5,0c-1.1,0-2.2-0.2-3.5-0.3c-0.1-1.6-0.2-3-0.2-4.7
	c1.4-0.2,2.7-0.3,3.9-0.5c3.1-0.6,6.3-1,9.4-1.9c3.1-0.9,5.3-3.1,6-6.3c0.8-3.1,1.3-6.2,1.8-9.4c0.3-2,0.2-4.2,0.2-6.2
	c0-23,0-46.1,0-69.1c0-3.5-0.2-7-1-10.5c-1.1-4.9-3.9-8-8.8-8.9c-3.6-0.7-7.3-1-10.9-1.4c-1.6-0.2-3.2,0.3-5-0.8
	c-0.1-1.2-0.1-2.5-0.2-3.6c1.1-1.4,2.5-1.5,3.7-1.6c8.8-0.7,17.5-1.5,26.3-2.2c4.1-0.3,8.3-0.8,12.4-1c2.1-0.1,4.1,0,5.8,0
	c1.4,1.3,1.1,2.7,1.1,3.9c0,5.9,0,11.8,0,17.8C1693,508.6,1693.1,510,1693.2,512.5z"/>
<path class="st0" d="M562.8,772.1c0.1-1.2,0.1-1.9,0.2-2.9c1.4-0.1,2.7-0.3,3.9-0.3c16.5,0,32.9,0,49.4,0c7.9,0,15.6,1.2,23.1,3.8
	c6.8,2.3,12.7,5.9,17.8,11c6.2,6.3,9.7,13.8,9.9,22.7c0.1,4,0,8-1.1,11.9c-1.7,6.4-5.2,11.6-10.4,15.7c-5.7,4.4-12.2,7-19.2,8.4
	c-8.5,1.7-17.1,2.3-25.8,1.5c-4-0.4-8-0.6-12-0.9c-0.4,0-0.9,0.2-1.6,0.3c-0.1,1.1-0.4,2.1-0.4,3.2c0,13,0,25.9,0.1,38.9
	c0,2.9,0.5,5.7,1,8.5c1.1,6.1,4.9,9.5,11,10.4c0.9,0.1,1.9,0.2,3.1,0.4c0.1,1,0.1,1.8,0.2,2.8c-0.8,0.2-1.4,0.4-2,0.4
	c-15,0-30.1,0-45.1,0c-0.6,0-1.2-0.2-2-0.4c0-0.9-0.1-1.6-0.1-2.6c1.2-0.2,2.2-0.5,3.3-0.6c5.8-0.9,9.5-4.1,11-9.9
	c1-3.9,1.4-7.9,1.4-11.9c0.1-29.3,0.1-58.5,0-87.8c0-4-0.6-8-1.3-11.9c-1.1-6.1-5-9.4-11.1-10.3
	C565.2,772.4,564.3,772.3,562.8,772.1z M597.1,837c11.5,2.9,22.8,3.7,33.9-0.8c9.5-3.9,15.1-11.1,16.7-21.2c1-6.2,0.8-12.5-1.2-18.5
	c-4.1-12.7-12.8-20.3-26.1-22.4c-7.3-1.1-14.7-0.6-22-0.5c-0.4,0-0.9,0.3-1.5,0.6c-0.1,0.7-0.4,1.5-0.4,2.2
	C596.2,784.7,596.5,832.8,597.1,837z"/>
<path class="st0" d="M1007.2,908.3c0,0.9,0.2,1.6-0.1,2.1c-0.2,0.5-0.9,0.9-1.4,1c-0.9,0.2-1.9,0.1-2.9,0.1c-13.4,0-26.9,0-40.3,0
	c-0.8,0-1.6,0-2.4,0c-1.7-0.1-1.9-0.4-1.6-3.2c1.6-0.4,3.3-0.7,5-1.1c5.5-1.4,8-5.4,6.4-10.9c-1.8-6.3-4-12.5-6-18.7
	c-2.2-6.8-4.5-13.7-6.7-20.5c-0.6-1.9-1.6-3-3.7-3c-13.8,0.1-27.5,0-41.3,0.1c-0.5,0-0.9,0.2-1.6,0.3c-0.4,0.7-0.9,1.5-1.2,2.4
	c-3.4,10-6.8,20-10.1,30c-0.8,2.3-1.2,4.6-1.7,7c-0.3,1.2-0.3,2.5-0.4,3.8c-0.4,5.5,2.8,8.8,7.3,9.7c0.8,0.1,1.6,0.4,2.3,0.6
	c1.4,0.5,1.4,1.6,0.8,2.9c-0.3,0.2-0.7,0.5-1.1,0.5c-5.8,0.5-30.4,0.2-33.7-0.4c0-0.7-0.3-1.6-0.1-2.2c0.3-0.6,1.1-1.2,1.8-1.3
	c7.9-1.5,12.6-6.6,15.4-13.7c2-5,3.9-10.1,5.6-15.3c11.6-34.7,23.2-69.4,34.8-104.1c0.6-1.6,1.2-3.3,1.9-5c4.7-0.5,9.1-0.2,13.2-0.2
	c1.7,1.5,1.9,3.4,2.5,5c6.1,18.2,12.2,36.3,18.4,54.5c6.7,20,13.4,40,20.2,60c1.2,3.5,2.6,6.9,4.1,10.2c2.3,5,6.1,8.1,11.8,8.6
	C1003.8,907.6,1005.2,907.9,1007.2,908.3z M932.6,786.8c-0.6,1.3-0.9,2-1.2,2.8c-5.9,17.9-11.8,35.7-17.7,53.6
	c-0.2,0.7-0.2,1.5-0.3,2.5c1.2,0.2,2.1,0.4,3.1,0.5c1.8,0.1,3.5,0,5.3,0c8.8,0,17.6,0,26.3,0c1.5,0,3.2,0.5,4.7-1.3
	c-6.2-18.8-12.4-37.7-18.9-56.5C933.8,787.9,933.4,787.7,932.6,786.8z"/>
<path class="st0" d="M1509.2,854.5c-0.5,1.2-1.1,2.3-1.5,3.5c-3,8.9-6.1,17.8-9,26.8c-0.8,2.6-1.6,5.2-2.1,7.9
	c-0.4,2.2-0.6,4.4-0.6,6.7c0.1,3.8,2.2,6.3,5.6,7.5c1.5,0.5,3.1,0.8,4.8,1.3c0,1,0,1.9,0,2.9c-1.2,0.1-2.3,0.3-3.4,0.3
	c-9.3,0-18.5,0-27.8,0c-0.8,0-1.6,0-2.4-0.1c-0.9-0.1-1.6-0.6-1.5-1.5c0.1-0.7,0.4-1.6,0.9-2c0.6-0.5,1.5-0.6,2.2-0.8
	c6-1.5,10.3-5.1,12.9-10.6c1.9-4.2,3.8-8.5,5.2-12.8c9-26.8,18-53.6,26.9-80.4c3.2-9.7,6.5-19.4,9.7-29.1c0.6-1.6,1.2-3.2,1.9-4.9
	c4.6,0,8.9,0,13.2,0c1.7,1.1,1.8,3,2.4,4.6c5.6,16.5,11.1,33,16.7,49.5c7.4,22.1,14.8,44.2,22.3,66.3c1.1,3.3,2.5,6.6,4.1,9.7
	c2.2,4.6,5.9,7.5,11.1,8c1.6,0.2,3.1,0.5,5,0.9c0,0.8,0.2,1.6,0,2.2c-0.3,0.9-1.2,0.9-2,0.9c-1.3,0-2.6,0-3.8,0
	c-12.5,0-24.9,0-37.4,0c-1.6,0-3.2,0-5,0c-0.2-1.1-0.3-2-0.4-2.7c0.5-0.3,0.7-0.6,1-0.7c1.2-0.3,2.5-0.5,3.7-0.8
	c6.1-1.5,8.5-5.3,6.8-11.4c-1.3-4.5-2.8-8.8-4.2-13.2c-2.5-7.7-5.1-15.5-7.6-23.2c-0.5-1.6-1.2-3.3-1.8-4.9c-4-0.8-7.9-0.3-11.7-0.4
	c-3.8-0.1-7.7,0-11.5,0c-3.7,0-7.4-0.1-11,0C1517,854.2,1513.1,853.7,1509.2,854.5z M1531.4,786.2c-6.7,19.6-12.6,38.2-18.8,56.8
	c-0.2,0.7-0.2,1.5-0.4,2.5c1,0.2,1.7,0.5,2.5,0.5c11.5,0,23,0,34.5,0c0.7,0,1.4-0.4,2.1-0.6c-0.6-3.9-14.3-46.4-18.3-56.7
	C1532.7,788.3,1532.3,787.8,1531.4,786.2z"/>
<path class="st0" d="M395.2,851.8c-4.4-0.7-40.7-0.8-45.2,0c-0.4,0.8-1,1.8-1.3,2.8c-3.2,9.4-6.4,18.7-9.5,28.2
	c-0.9,2.7-1.5,5.6-2.1,8.4c-0.3,1.4-0.4,2.9-0.4,4.3c0.1,4.2,2,6.8,6.1,8.2c1.3,0.5,2.7,0.8,4.3,1.2c0.1,0.8,0.2,1.5,0.2,2.1
	c-0.5,0.4-0.7,0.7-0.9,0.8c-1.3,0.1-2.5,0.3-3.8,0.3c-8.6,0-17.3,0-25.9,0c-1.4,0-2.8-0.2-4.3-0.3c-0.1-1.1-0.1-1.8-0.1-2.8
	c1.6-0.5,3.1-1,4.6-1.5c4.7-1.4,8.1-4.3,10.6-8.5c2.5-4.3,4.3-8.9,5.8-13.6c4.7-14.1,9.5-28.2,14.2-42.3
	c7.5-22.3,14.9-44.5,22.3-66.8c0.5-1.5,1.1-3,1.7-4.5c4.6-0.6,9-0.4,13.7-0.1c0.7,1.7,1.4,3.3,1.9,5c10.1,30,20.2,60,30.3,89.9
	c2.8,8.3,5.6,16.7,8.5,25c1,2.9,2.2,5.7,3.5,8.4c2.5,5.2,6.6,8,12.4,8.5c1.1,0.1,2.2,0.2,3.6,0.3c0.1,1,0.2,1.8,0.3,2.7
	c-0.7,0.2-1.1,0.5-1.5,0.6c-7.1,0.4-42.5,0.1-46.3-0.4c-0.1-0.8-0.1-1.6-0.2-2.4c0.5-0.3,0.8-0.5,1-0.6c1.9-0.4,3.8-0.7,5.6-1.3
	c3.5-1.3,5.2-4.1,5-7.9c-0.1-1.3-0.3-2.5-0.7-3.7c-4-12.3-8-24.6-12-36.9C396.1,853.7,395.6,852.9,395.2,851.8z M391.8,842.9
	c-0.5-1.8-0.8-3.3-1.3-4.8c-2.1-6.5-4.3-13-6.5-19.5c-3.4-10.3-6.9-20.6-10.4-30.9c-0.3-1-0.9-1.9-1.7-3.4c-0.8,2-1.3,3.3-1.7,4.6
	c-1.8,5.3-3.5,10.6-5.3,15.9c-3.8,11.5-7.6,23-11.3,34.6c-0.4,1.2-1.1,2.4-0.2,3.6c3.1,0.6,29.3,1,35.8,0.5
	C390,843.4,390.7,843.1,391.8,842.9z"/>
<path class="st0" d="M1652,777.4c-1.7-0.1-2.8-0.3-3.8-0.3c-6.7,0-13.4,0-20.1,0c-3.7,0-7.3,0.5-10.9,1.5c-7.7,2-12.4,6.9-14.3,14.6
	c-0.3,1.1-0.4,2.2-0.8,3.2c-0.2,0.4-1.1,0.7-1.6,0.7c-0.5,0-1.2-0.5-1.4-1c-0.3-0.5-0.3-1.2-0.3-1.9c0-8.8,0-17.6,0-26.4
	c0-0.6,0.3-1.2,0.4-1.6c1.4-1,2.7-0.9,3.8-0.2c6.3,4.1,13.5,4.5,20.7,4.7c2.9,0.1,5.8,0,8.6,0c20.9,0,41.9,0,62.8,0
	c4,0,8-0.4,12-0.7c4.2-0.3,8.2-1.4,11.8-3.6c1.6-0.9,3.2-1.5,5.2-0.4c0.1,0.4,0.3,1,0.3,1.6c0,8.8,0,17.6,0,26.4
	c0,0.8-0.2,1.6-0.4,2.3c-0.1,0.2-0.5,0.5-0.7,0.5c-0.3,0-0.7-0.1-0.8-0.3c-0.3-0.3-0.5-0.8-0.7-1.2c-0.4-1.1-0.7-2.1-1.1-3.2
	c-2.8-7.9-8.3-12.8-16.6-14.1c-2.8-0.5-5.7-0.9-8.6-1c-7.2-0.1-14.4-0.1-21.6-0.1c-0.9,0-1.9,0.2-3,0.3c-0.2,1.2-0.5,2.2-0.6,3.3
	c-0.1,1.3,0,2.6,0,3.8c0,32.5,0,64.9,0,97.4c0,3.7,0.1,7.4,0.4,11c0.2,2.2,0.5,4.5,1.1,6.6c1.2,4.2,3.9,6.8,8.3,7.8
	c1.6,0.3,3.1,0.7,4.9,1c0,0.9,0,1.8,0,2.9c-1.2,0.1-2.3,0.3-3.4,0.3c-13.8,0-27.5,0-41.3,0c-0.8,0-1.6,0.1-2.4-0.1
	c-0.5-0.1-1.2-0.5-1.4-1c-0.2-0.5-0.1-1.2-0.1-2c1.7-0.4,3.2-0.8,4.8-1.1c5-1.1,8.2-4.1,9.5-9.1c0.6-2.3,1-4.7,1.2-7.1
	c0.2-2.7,0.2-5.4,0.2-8.2c0-33.1,0-66.2,0-99.3C1652.1,781.7,1652.1,779.8,1652,777.4z"/>
<path class="st0" d="M465.3,908.9c-0.7-3.8-0.7-31.6,0-36.1c0.8,0,1.7-0.1,2.7-0.2c0.4,2.1,0.7,4,1,5.9c2.3,17.1,17.8,27,29.5,27.8
	c5,0.3,9.9,0.3,14.7-1.2c18.4-5.6,21.5-25.3,13.4-37.1c-2.7-3.9-5.8-7.3-9.5-10c-5.5-4.1-11.2-7.9-16.9-11.8
	c-5-3.4-10.2-6.7-15.2-10.1c-2-1.3-3.9-2.9-5.7-4.4c-8.7-7.5-13.1-17.2-13.5-28.6c-0.2-4.3,0.1-8.6,1.3-12.8
	c3.6-12,11.6-19.6,23.5-23.2c7.8-2.4,15.8-2.3,23.7-0.6c3.3,0.7,6.5,1.7,9.7,2.6c1.5,0.4,3.1,1,4.6,1.3c2.4,0.6,4.5,0.4,5.6-2.2
	c0.2-0.4,0.6-0.7,1-1c0.9-0.6,2.6-0.1,2.8,0.9c0.1,0.5,0.2,0.9,0.2,1.4c0,8.8,0,17.6,0,26.4c0,0.6,0,1.4-0.3,1.9
	c-0.3,0.5-0.9,0.9-1.5,1c-0.5,0.1-1.3-0.3-1.6-0.7c-0.4-0.6-0.5-1.5-0.8-2.2c-0.8-2.8-1.3-5.6-2.5-8.2c-4.3-9.9-12-15.6-22.6-17.1
	c-5.1-0.7-10.2-0.7-15.2,0.8c-0.6,0.2-1.2,0.4-1.8,0.6c-10.1,3.5-15.6,12.1-13.6,23.9c1,5.7,3.6,10.6,7.8,14.5
	c2.6,2.4,5.3,4.7,8.2,6.7c4.6,3.2,9.3,6.2,14.1,9.1c6.9,4.3,13.8,8.6,20.2,13.8c2.1,1.7,4.1,3.5,6.1,5.4c6.8,6.6,10.4,14.7,11,24.3
	c1.4,22.3-15.6,37.1-28.9,40.4c-7.2,1.7-14.3,1.7-21.4-0.1c-4.5-1.1-8.9-2.5-13.3-3.8c-1.8-0.5-3.7-1.1-5.5-1.7c-2.9-1-5,0-6.6,2.4
	c-0.3,0.4-0.5,0.8-0.7,1.2C468,909.7,466.7,909.8,465.3,908.9z"/>
<path class="st0" d="M1113.7,613.7c0-1.6,0-3,0-4.6c1.1-0.2,2.1-0.4,3.2-0.5c3.2-0.3,6.4-0.5,9.5-1c6.3-1.1,9.2-4.1,10.2-10.4
	c0.4-2.5,0.6-5.1,0.6-7.6c0-24.9,0-49.9,0-74.8c0-2.9-0.4-5.7-0.7-8.6c-0.1-1.3-0.6-2.5-0.9-3.7c-1-3.3-3.3-5.5-6.7-6.2
	c-2.8-0.6-5.7-1-8.5-1.3c-2-0.2-4.1-0.2-6.1-0.3c-0.8-2.3-0.9-2.3-0.5-5.1c3.6-1.5,7.7-0.8,11.6-1.5c3.8-0.6,7.6-0.8,11.4-1.2
	c4-0.4,7.9-0.9,11.9-1c3.8-0.2,7.6-1.1,11.3,0c1.2,1.9,0.8,3.9,0.8,5.8c0,28.6,0,57.2,0,85.8c0,5-0.1,9.9,0.1,14.9
	c0.1,2.2,0.3,4.5,0.8,6.6c0.9,4.1,3.5,6.8,7.5,8c2.6,0.8,5.3,1.1,8,1.6c1.2,0.2,2.5,0.2,3.7,0.3c0.9,1.8,0.9,3.2,0.1,4.7
	c-4.3,0.7-32.9,0.9-63.3,0.5C1116.4,614,1115.2,613.8,1113.7,613.7z"/>
<path class="st0" d="M1775.9,489.6c0.8-0.3,1.4-0.6,2-0.7c13.5-1.2,27.1-2.4,40.6-3.5c1.1-0.1,2.2,0.2,3.5,0.3
	c0.2,1,0.5,1.9,0.6,2.8c0.1,1.6,0,3.2,0,4.8c0,32,0,64,0,96c0,2.9,0.3,5.7,0.7,8.6c0.8,5.2,4,8.2,8.9,9.5c2.6,0.7,5.4,0.8,8,1.2
	c0.9,0.1,1.9,0.2,3,0.3c0.1,1.6,0.1,3,0.2,4.6c-1.3,0.2-2.4,0.5-3.4,0.5c-20.3,0-40.6,0-60.9,0c-1.1,0-2.2-0.2-3.1-0.4
	c-0.9-1.6-0.9-3-0.1-4.6c0.9-0.1,2-0.3,3.1-0.4c3-0.3,6.1-0.5,9-1c6.5-1.1,9.5-4.2,10.5-10.7c0.3-1.7,0.3-3.5,0.3-5.3
	c0-26.4,0-52.8,0-79.2c0-3-0.3-6.1-1.1-9c-1.1-4.1-3.6-6.7-7.8-7.5c-2.8-0.5-5.7-0.8-8.5-1.1c-1.7-0.2-3.5-0.2-5.2-0.3
	C1775,493,1775.2,491.5,1775.9,489.6z"/>
<path class="st0" d="M864.2,881.6c-2.1,8.8-4.7,17.1-7,25.6c-0.4,1.4-0.9,2.7-1.4,4.3c-32.8,0-65.4,0-98,0c-0.9,0-1.9-0.2-3-0.3
	c-0.1-0.9-0.2-1.6-0.3-2.7c1.5-0.4,2.8-0.9,4.2-1.2c4.8-1,8-3.9,9.5-8.5c0.9-2.9,1.4-5.9,1.8-8.9c0.3-2.2,0.2-4.5,0.2-6.7
	c0-29.1,0-58.2,0-87.3c0-3.7-0.1-7.3-0.9-11c-1.2-5.9-4.6-9.3-10.5-10.3c-1.2-0.2-2.5-0.4-4-0.6c0-1,0-1.9,0-2.7
	c4.2-0.7,45-0.7,49.1,0c0.1,0.7,0.1,1.5,0.2,2.5c-1.5,0.3-2.8,0.6-4.2,0.9c-5,1.1-8.2,4.2-9.7,9c-0.7,2.1-1.1,4.3-1.3,6.6
	c-0.3,2.7-0.4,5.4-0.4,8.1c0,30.1,0,60.1,0,90.2c0,2.2,0.1,4.5,0.3,6.7c0.5,4.6,2.8,8.1,8.4,9.1c2.3,0.4,4.7,0.8,7.1,0.8
	c9.9,0.1,19.8,0,29.7,0c3.9,0,7.6-0.6,11.4-1.6c4.1-1.1,7.3-3.4,9.2-7.1c1.8-3.5,3.3-7.2,4.9-10.9c0.4-0.9,0.6-1.8,0.9-2.7
	C860.9,881.3,862,881.1,864.2,881.6z"/>
<path class="st0" d="M368.8,993.3c6,5.1,9.4,11.3,13.1,17.3c0.6,0.9,1.2,1.9,1.9,2.8c3,4.3,3.4,4.7,8.5,8.1
	c-0.2,0.2-0.4,0.6-0.6,0.6c-3.4,0-6.7,0-10.3,0c-1.1-1.5-2.4-2.9-3.4-4.5c-2-3.1-3.9-6.2-6-9.3c-2.1-3-4.1-6.1-6.4-9
	c-3.6-4.4-8.4-5.4-13.9-4.2c-0.2,0.7-0.4,1.3-0.4,1.9c0,5.3-0.1,10.6,0,15.8c0.1,5,1,6.2,5.5,8.5c0,0.2,0,0.3-0.1,0.5
	c-0.1,0.1-0.2,0.2-0.3,0.2c-5.6,0-11.2,0.1-16.8,0.1c-0.4,0-0.8-0.2-1.2-0.3c0.1-0.3,0.1-0.5,0.1-0.6c4.1-1.2,5.2-4.4,5.3-8.1
	c0.1-2.2,0-4.5,0-6.7c0-10.4,0-20.8,0-31.2c0-1.8-0.1-3.5-0.3-5.3c-0.3-2.5-1.5-4.5-4.2-5.3c-0.4-0.1-0.9-0.4-1.8-0.8
	c0.9-0.4,1.4-0.7,1.9-0.7c7.4,0,14.7-0.1,22.1,0c3.2,0.1,6.4,0.5,9.4,1.7c4.6,2,8.1,5,9.4,10.2c1.6,6.2-0.7,12-6.1,15.4
	C372.6,991.3,371,992.1,368.8,993.3z M351.1,992.3c1.4,0.2,2.2,0.4,2.9,0.4c2.2,0,4.5,0.1,6.7-0.1c6.5-0.6,11.1-5,11.9-11.1
	c1-7.2-1.9-12.6-8-15.2c-3.4-1.5-8.8-1.7-13.5-0.5C351,974.3,350.9,983.1,351.1,992.3z"/>
<path class="st0" d="M1561.2,987.8c-0.4,0.2-0.8,0.5-1.2,0.5c-2.7,0.2-4.4,1.8-5.7,4c-0.7,1.2-1.4,2.5-2,3.8
	c-1.8,3.9-3.4,7.9-5.3,12.2c2.4,3.7,5.3,7.2,8.9,10.1c1.6,1.3,3.4,1.6,5.4,0.8c0.6-0.2,1.1-0.5,1.6-0.7c0.8,0.8,0.3,1.3-0.2,1.7
	c-4.5,4.3-9.9,4.5-14.6,0.4c-1.9-1.7-3.5-3.7-5.1-5.3c-2.1,0-2.8,1.5-3.9,2.4c-3.4,3.1-7.3,5.2-11.9,5.7c-5.7,0.7-10.8-0.9-14.8-5.1
	c-4.3-4.4-4.9-10.6-1.8-15.9c1.6-2.8,3.9-5.1,6.5-7c1.3-0.9,2.5-1.9,3.9-2.8c-0.4-1.9-1.8-2.8-2.7-4.1c-2.8-4-4-8.3-2.8-13.1
	c2.3-9.1,14.6-12.5,21.3-6.5c3.8,3.4,4.8,8.7,2,13c-1.3,1.9-3.2,3.5-5,5.1c-1,0.9-2.2,1.7-3.3,2.5c0.2,0.6,0.3,1,0.5,1.2
	c4.6,4.9,9.2,9.8,13.8,14.7c0.1,0.1,0.3,0.1,0.8,0.2c2.9-3.8,4.5-8.1,4.4-13c0-2.4-1.7-3.6-3.9-4.6
	C1549.2,986.8,1553.8,986.6,1561.2,987.8z M1522.8,994c-5.7,3.4-8.4,8.7-7.2,14c1.3,5.7,6.7,10.8,12.1,11.5c5.5,0.7,10.4-1.9,13-6.7
	C1537.1,1007.1,1528,997.5,1522.8,994z M1528.4,988.3c5.2-2.4,8-7.1,7.3-12.2c-0.4-3-1.7-5.5-4.6-6.9c-3.1-1.5-6.9-0.9-9.3,1.5
	c-2.2,2.2-2.8,5.7-1.2,8.9C1522.4,983.2,1525,986.2,1528.4,988.3z"/>
<path class="st0" d="M960.9,1021.9c-6.1,0.4-11.5,0.3-17,0.1c0-0.4,0-0.7,0.1-0.7c3.8-0.9,4.9-3.6,4.8-7.1c-0.1-5.8,0-11.5,0-17.3
	c0-1.8-0.1-3.5-1.1-5.1c-1.8-2.9-5.6-4.3-9.3-3.2c-3.6,1-6.1,3.4-7.9,6.5c-0.4,0.8-0.5,1.8-0.5,2.8c0,5.8,0,11.5,0,17.3
	c0,2.9,1,5,4.1,5.7c0.2,0.1,0.4,0.4,0.5,0.7c-0.2,0.2-0.4,0.5-0.6,0.5c-4.9,0-9.9,0-14.8,0c-0.4-1.1,0.4-1.2,0.9-1.3
	c2.3-0.5,3-2.1,3.3-4.2c0.1-0.9,0.1-1.9,0.1-2.9c0-5.3,0-10.6,0-15.8c0-0.6,0-1.3,0-1.9c-0.5-5.4-4.9-8.6-10.1-7.4
	c-3.4,0.8-6.1,2.8-7.9,5.8c-0.7,1.1-0.8,2.7-0.8,4.1c-0.1,5.3-0.1,10.6,0,15.8c0.1,4.8,0.3,5,4.8,7.1c-2.9,0.9-10.3,1-16.2,0.3
	c0.1-0.3,0.2-0.7,0.4-0.7c3.3-0.6,4.4-2.7,4.4-5.8c-0.1-7.4,0-14.7,0-22.1c0-0.6-0.1-1.3-0.2-1.9c-0.3-1.9-1.3-3.2-3.2-3.7
	c-0.9-0.2-1.8-0.4-2.7-0.5c0-0.3,0-0.5,0-0.6c0-0.1,0.2-0.3,0.3-0.3c2.7-0.3,5.4-0.7,8.1-1c1.1-0.1,2.2,0,3.2,0c2,1.7,0.5,4.2,1.9,6
	c1.4,0,2-1.3,2.9-2c2.7-2.4,5.8-3.9,9.5-4.1c4.1-0.2,7.5,1.3,10,4.6c0.7,0.9,1.3,1.8,2.1,3c1.4-1.4,2.7-2.6,4-3.7
	c3.1-2.8,6.7-4.2,11-3.9c5.5,0.4,9.5,4,10.5,9.5c0.3,1.7,0.4,3.5,0.4,5.2c0.1,4.5,0,9,0,13.4c0,1,0,1.9,0,2.9c0,2.6,1.1,4.3,3.8,4.8
	C959.7,1020.8,960,1021.2,960.9,1021.9z"/>
<path class="st0" d="M68,962.9c1,3.9,1,12.2-0.1,16.2c-0.6-1.4-1-2.3-1.3-3.3c-3.9-11.7-21.3-17-32-7.6c-3.1,2.7-5.4,6-6.7,9.8
	c-3.4,9.8-3,19.5,1.3,29c1.5,3.2,3.6,6,6.2,8.5c5,4.6,10.9,6.5,17.6,5.9c1.3-0.1,2.5-0.5,3.7-0.9c2.4-0.9,4-2.7,4-5.4
	c0-3.2,0.1-6.4-0.1-9.6c-0.3-4.8-1.5-6.1-6.5-7.4c-0.2-0.1-0.4-0.4-0.6-0.6c4.4-0.6,17.1-0.5,20.8,0.1c-0.1,0.9-0.9,0.9-1.4,1
	c-2.9,0.8-4.1,2.9-4.5,5.6c-0.2,1.3-0.2,2.5-0.2,3.8c0,3.4,0,6.7,0,10.1c0,1.3-0.2,2.5-0.2,3.9c-0.9,0.3-1.6,0.8-2.3,0.8
	c-7.5,0.7-14.9,1.6-22.5,0.3c-6.9-1.3-13.2-3.7-18.2-8.9c-4.5-4.7-7-10.2-7.4-16.7c-0.5-7.2,0.6-14,4.2-20.4
	c6-10.4,18.5-17.8,32.7-14.5c1.9,0.4,3.7,0.9,5.6,1.3C63.9,964.8,63.9,964.7,68,962.9z"/>
<path class="st0" d="M1813.3,985.1c0.3,1.8,0.6,3.3,0.9,5.2c1.3-0.8,2.2-1.3,3.1-2c8.8-7,21.1-2.9,24.6,8.1
	c1.7,5.3,1.7,10.7-0.5,15.9c-2.5,5.9-8.1,11.7-18,10.6c-1.9-0.2-3.7-1-5.5-1.6c-1.2-0.4-2.2-1-3.7-1.8c-0.2,1.3-0.5,2.2-0.5,3
	c0,6.7,0.1,13.4-0.1,20.1c-0.1,3.6,0.9,6.3,4.6,7.3c0.1,0,0,0.3,0.1,0.7c-5.4,0.4-10.7,0.2-16.1,0.1c-0.2-1.4,0.9-1.2,1.5-1.4
	c2.2-0.5,3.1-2.1,3.4-4.1c0.2-1.3,0.2-2.5,0.2-3.8c0-15.3,0-30.7,0-46c0-1.4-0.1-2.9-0.2-4.3c-0.3-2.1-1.3-3.6-3.5-3.9
	c-0.6-0.1-1.2-0.2-1.8-0.4c0.1-0.4,0.1-0.9,0.2-0.9C1805.5,985.7,1809.1,984.8,1813.3,985.1z M1813.7,1005.1c0,3.2,0,6.4,0,9.6
	c0,1.1,0.2,2.2,1,3.1c5,5.4,13.5,4.9,17.9-1c2-2.8,3-6,3.3-9.3c0.5-5.4-0.3-10.5-3.6-15c-3.7-5-9.1-6-14.3-2.7
	c-0.9,0.6-1.8,1.4-2.6,2.1c-1.2,1-1.7,2.2-1.7,3.8C1813.8,998.7,1813.7,1001.9,1813.7,1005.1z"/>
<path class="st0" d="M1615.7,1021.6c-5,0.7-15.3,0.7-19,0c0.1-0.2,0.2-0.7,0.4-0.7c3.8-1,4.9-3.7,5.1-7.2c0-0.8,0.1-1.6,0.1-2.4
	c0-12.5,0-24.9,0-37.4c0-1-0.1-1.9-0.1-2.9c-0.2-3.3-1.5-5.8-5-6.7c-0.2-0.1-0.4-0.4-0.7-0.6c0.5-0.9,1.3-0.7,2.1-0.7
	c6.2,0,12.5-0.1,18.7,0c4.6,0.1,9.3,0.7,13.5,2.8c4.6,2.4,7.9,5.9,8.9,11.2c1.2,6.2-1.4,11.9-6.9,15c-3.6,2-7.5,2.6-11.5,2.8
	c-2.5,0.1-5.1-0.1-7.7-0.2c-0.9,0-1.9-0.1-3.1-0.2c-0.3,1-0.8,1.9-0.8,2.7c-0.1,4.8,0,9.6,0,14.4c0,0.8,0.1,1.6,0.2,2.4
	C1610.5,1018.5,1610.9,1019,1615.7,1021.6z M1610.1,965.3c-0.2,1.2-0.4,2.1-0.4,3.1c0,6.7,0,13.4,0,20.1c0,0.6,0,1.3,0.1,1.9
	c0.2,1,0.7,1.8,1.7,2c4.5,1.1,8.8,1.1,13.2-0.7c3.3-1.4,5.7-3.7,6.7-7.1c1.4-5,1.1-9.8-2-14.2c-2-2.9-4.8-4.7-8.3-5.3
	C1617.6,964.7,1614.1,964.6,1610.1,965.3z"/>
<path class="st0" d="M2123.7,989.5c1.3-0.8,2.1-1.2,2.9-1.7c11.1-7.4,25.5,0.1,25.9,14.2c0.2,8.1-4.1,14.7-11.7,18.1
	c-4.5,2-9.2,2.6-14,2.5c-2.7-0.1-5.4-0.5-8.1-0.9c-0.6-0.1-1.1-0.5-2-0.8c0-1.7-0.1-3.5-0.1-5.2c0-15.3,0-30.7,0-46
	c0-0.8,0-1.6,0-2.4c-0.1-5.8-0.1-5.8-5.4-7.8c-0.1,0-0.1-0.2-0.3-0.6c3.7-1.1,7.6-0.9,11.1-1.2c1.4,1.1,1,2.5,1,3.7
	c0,7.7,0,15.3,0,23C2123,985.9,2122.8,987.5,2123.7,989.5z M2123,1004.4C2123,1004.4,2123,1004.4,2123,1004.4c0,2.9,0,5.7,0,8.6
	c0,1.1,0,2.2,0.3,3.3c0.6,3.3,2.2,4.8,5.5,4.9c5.6,0.3,10.3-1.6,13.6-6.3c4-5.8,4.1-15.9,0.2-21.8c-0.3-0.5-0.7-1.1-1.1-1.5
	c-4.6-5.4-11.8-5.7-16.8-0.6c-1.1,1.1-1.7,2.3-1.7,3.8C2123,998,2123,1001.2,2123,1004.4z"/>
<path class="st0" d="M443.7,958.7c1.1-0.2,2.1-0.5,3.2-0.6c2.7-0.2,5.4-0.4,8.3-0.6c0.2,1.4,0.4,2.5,0.4,3.5c0,7.7,0,15.4,0,23
	c0,1.6,0.1,3.2,0.1,4.6c1.6,0.8,2.3-0.3,3.2-0.9c2.5-1.6,5.1-2.7,8-2.9c8-0.6,15.3,4.5,17.3,12.3c2.5,10.1-1.7,18.4-10.6,22.7
	c-3.8,1.9-8,2.4-12.1,2.6c-4,0.2-7.9-0.4-11.9-1.2c-0.9-1.8-0.6-3.6-0.6-5.3c0-15.7,0-31.4,0-47c0-1.4,0-2.9-0.1-4.3
	c-0.2-2.4-1-4.4-3.8-4.7c-0.6-0.1-1.2-0.4-1.8-0.5C443.6,959.2,443.7,959,443.7,958.7z M455.7,1004.6
	C455.7,1004.6,455.7,1004.6,455.7,1004.6c0,3.2,0,6.4,0,9.6c0,0.3,0,0.6,0,1c0.3,4.5,2.2,6.2,6.7,6.3c6.7,0.1,12.5-4,14.5-10.4
	c1.4-4.3,1.7-8.8,0.3-13.2c-0.7-2.1-1.7-4.2-3-5.9c-4.4-5.7-11.5-6-16.7-1.1c-1.2,1.2-1.9,2.4-1.9,4.2
	C455.7,998.2,455.7,1001.4,455.7,1004.6z"/>
<path class="st0" d="M1811.3,420.4c8.9,0,15,6.3,14.9,15.2c-0.1,8.4-6.6,15-14.8,15.1c-9.1,0.1-15.6-8.1-15.6-15.5
	C1795.9,428.6,1801.3,420,1811.3,420.4z"/>
<path class="st0" d="M1149.4,420.4c9.2-0.3,14.9,7.1,14.9,15.2c-0.1,6.6-4.9,14.9-14.7,15.1c-8,0.2-15.6-6.3-15.5-15.5
	C1134.1,425.9,1141.5,419.9,1149.4,420.4z"/>
<path class="st0" d="M708.8,1022.1c5.2-4.1,5.9-4.9,8.1-11.6c4.6-13.8,9.2-27.5,13.8-41.3c0.7-2,1.4-3.9,2.1-5.9
	c1.9-0.9,3.8-0.7,5.9-0.3c0.7,1.8,1.4,3.5,2,5.3c4.8,14.4,9.7,28.7,14.5,43.1c0.5,1.4,0.9,2.7,1.4,4.1c1,2.6,2.6,4.8,5.6,5.4
	c0.2,0,0.4,0.4,0.5,0.6c-3.3,0.7-10.1,0.9-17.4,0.4c-0.3-1.2,0.7-1.2,1.4-1.4c1.9-0.8,2.5-2.3,2.2-4.3c-0.1-0.5-0.1-1-0.3-1.4
	c-1.6-5-3.3-10-5-15c-0.1-0.4-0.5-0.8-0.8-1.1c-3.7-0.8-14.7-0.9-19-0.1c-0.3,0.4-0.7,0.7-0.8,1.1c-1.5,4.5-3.2,9-4.5,13.6
	c-1.3,4.6-1.1,5,2.9,7.9c0.1,0.1,0,0.3,0,0.6c-0.4,0.1-0.8,0.3-1.2,0.3C716.4,1022.1,712.6,1022.1,708.8,1022.1z M741.6,994.1
	c-2.6-7.8-4.9-15.5-7.8-22.8c-0.1-0.2-0.5-0.3-0.9-0.5c-0.2,0.3-0.6,0.6-0.8,1c-2.3,6.8-4.5,13.6-6.7,20.4c-0.2,0.7-0.1,1.5-0.1,2.2
	C729.9,995.4,737.7,995.3,741.6,994.1z"/>
<path class="st0" d="M1236.6,963.3c0.6,3.8,0.3,7.6,0.2,11.3c-1,0.4-1.2-0.2-1.4-0.8c-0.2-0.6-0.4-1.2-0.6-1.8
	c-2.9-7.2-10.5-10.5-17.7-7.7c-4.8,1.9-6.9,6.2-5.4,11.3c0.7,2.6,2.1,4.7,4.2,6.2c2.4,1.8,4.9,3.5,7.5,5.2c2.8,1.9,5.6,3.7,8.4,5.6
	c1.4,1,2.7,2.2,4,3.4c7.9,7.7,5,23.1-7.6,26.9c-3.5,1.1-7,0.6-10.4-0.2c-1.4-0.3-2.8-0.8-4.1-1.2c-3.4-1-3.4-1-7,0.5
	c-0.7-4.6-0.5-9.1,0.4-13.7c0.4,1.2,0.7,2.3,1.1,3.5c2.7,8,11.5,12.2,19.4,9.1c6.1-2.4,8.7-9.4,5.2-15c-1.2-2-3-3.8-4.8-5.3
	c-2.5-2-5.2-3.6-7.9-5.4c-2.5-1.7-5.1-3.3-7.4-5.2c-5.6-4.5-6.9-10.6-5.6-17.3c1.1-5.8,6.4-10.1,12.7-10.8c3.4-0.3,6.7-0.1,10,0.9
	C1233.2,963.9,1233.3,963.9,1236.6,963.3z"/>
<path class="st0" d="M2025.5,964c6-1.1,11.9-0.9,17.8-0.9c0.4,0,0.8,0.4,1.5,0.7c-0.9,0.5-1.6,0.9-2.3,1.2c-1.9,0.9-2.9,2.5-3.2,4.5
	c-0.3,1.9-0.6,3.8-0.6,5.7c-0.1,12.1,0,24.3,0,36.4c0,1.4,0.2,2.9,0.4,4.3c0.4,2.2,1.8,3.3,3.9,3.6c0.9,0.1,1.9,0.2,2.9,0.2
	c4.2,0,8.3-0.1,12.5,0c5.1,0.2,8.6-1.9,10.2-6.8c0.3-0.9,0.5-1.9,1.7-2.4c-0.1,0.7,0,1.3-0.2,1.9c-0.8,3.1-1.7,6.1-2.7,9.3
	c-4.8,0.8-9.4,0.3-13.9,0.4c-4.6,0.1-9.3,0-13.9,0c-4.6,0-9.2,0-14.4,0c0.8-0.8,1-1.2,1.4-1.3c3.1-0.9,4.2-3.2,4.6-6.1
	c0.2-1.4,0.2-2.9,0.2-4.3c0-12.1,0-24.3,0-36.4c0-1.1,0-2.2-0.1-3.4c-0.2-3-1.4-5.2-4.4-6.1C2026.3,964.4,2025.9,964.2,2025.5,964z"
	/>
<path class="st0" d="M1434.4,1021.6c-3.8,0.6-12.2,0.6-16.3,0.1c0.2-0.2,0.3-0.7,0.5-0.7c3.7-0.5,4.4-2.9,4.4-6.2
	c-0.1-5.7,0-11.5,0-17.3c0-0.3,0-0.6,0-1c0.3-6.8-7.1-10.5-13-6.9c-1.2,0.7-2.3,1.7-3.4,2.7c-1.9,1.7-2.8,3.6-2.7,6.3
	c0.2,5.1,0.1,10.2,0.1,15.3c0,1,0.1,1.9,0.2,2.9c0.3,1.9,1.1,3.3,3.1,3.8c0.5,0.1,1,0.5,1.5,1c-5.5,0.6-10.9,0.6-16.4,0.3
	c0.1-0.4,0.1-0.7,0.2-0.7c3.7-0.7,4.8-3.2,4.7-6.6c0-7.2,0-14.4,0-21.6c0-0.6-0.1-1.3-0.2-1.9c-0.2-2-1.2-3.3-3.2-3.7
	c-0.6-0.1-1.2-0.3-1.8-0.4c0.1-0.4,0.2-0.9,0.3-0.9c3.6-0.4,7.2-1.5,11.1-0.9c0.3,1.9,0.6,3.7,0.9,5.7c2-0.1,2.8-1.7,4.1-2.6
	c2.7-1.9,5.4-3.3,8.8-3.4c6.3-0.2,11.5,4.5,12.1,10c0.2,1.7,0.3,3.5,0.3,5.3c0.1,4.2,0,8.3,0,12.5c0,1.3,0.1,2.6,0.2,3.8
	c0.2,2.1,1.1,3.6,3.3,4.1C1433.6,1020.8,1434.3,1020.8,1434.4,1021.6z"/>
<path class="st0" d="M1288.1,985.9c3.6,0,7.2-1.3,11.1-0.8c0.3,2,0.6,3.8,0.8,5.5c1.5,0.5,2-0.5,2.7-1c2-1.3,3.9-2.9,6.1-3.8
	c8-3.2,16,1.9,16.5,10.4c0.3,5.1,0.1,10.2,0.1,15.3c0,1.4,0,2.9,0.1,4.3c0.3,2.4,1.2,4.3,3.9,4.8c0.4,0.1,0.8,0.4,1.3,0.7
	c-3.2,0.9-10.7,1-16.4,0.3c0.1-0.3,0.2-0.7,0.4-0.7c3.2-0.7,4.4-2.7,4.3-5.9c-0.1-5.9,0-11.8,0-17.7c0-1,0-1.9-0.2-2.9
	c-1.1-5-6.4-7.6-11.3-5.7c-2.9,1.2-5.1,3.3-6.9,5.8c-0.6,0.9-0.9,2.1-0.9,3.2c-0.1,5.6,0,11.2,0,16.8c0,0.8,0.2,1.6,0.4,2.4
	c0.3,1.9,1.2,3.3,3.2,3.7c0.6,0.1,1.1,0.5,1.5,1c-5.5,0.6-10.9,0.6-16.3,0.3c0.1-0.4,0.1-0.7,0.2-0.7c3.8-0.7,4.6-3.3,4.6-6.7
	c-0.1-7,0-14.1,0-21.1c0-0.6,0-1.3-0.1-1.9c-0.2-1.9-1.1-3.3-3-3.9c-0.7-0.2-1.4-0.4-2.1-0.6C1288,986.6,1288.1,986.3,1288.1,985.9z
	"/>
<path class="st0" d="M1969,1021.9c-6.5,0-11.9,0-17.3,0c-0.1-1.2,0.9-1.2,1.6-1.4c1.8-0.5,2.5-1.8,2.8-3.5c0.2-0.9,0.2-1.9,0.2-2.9
	c0-6.9,0-13.7,0-20.6c0-0.5,0-1,0-1.4c-0.1-2.5-1-4.3-3.7-4.8c-0.5-0.1-0.9-0.3-1.3-0.4c0.1-0.3,0.2-0.8,0.3-0.8
	c3.5-0.4,6.9-1.4,10.4-1c1.5,1.7,0.3,3.8,1.4,5.8c0.6-0.3,1.4-0.4,1.9-0.8c1.6-1.1,3-2.4,4.6-3.4c2.8-1.8,6-2.3,9.2-1.6
	c5.2,1,8.9,5.3,9.4,10.8c0.2,2.2,0.1,4.5,0.1,6.7c0,3.5,0,7,0,10.5c0,1.1,0,2.2,0.2,3.3c0.3,2,1.2,3.6,3.4,4.1
	c0.6,0.1,1.1,0.4,1.9,0.8c-3.6,0.8-10.2,1-17.2,0.4c0.1-1.1,1-1,1.7-1.2c2.5-0.5,3.4-2.1,3.5-4.5c0.1-1.8,0-3.5,0-5.3c0-4,0-8,0-12
	c0-1.1,0-2.2-0.1-3.3c-0.7-5.6-6.1-8.9-11.3-6.9c-3.1,1.2-5.4,3.4-7.2,6.1c-0.5,0.7-0.7,1.8-0.7,2.7c-0.1,5.7,0,11.5,0,17.2
	c0,0.5,0.1,0.9,0.2,1.4c0.3,2.4,1.4,4.2,4.1,4.6C1967.4,1020.9,1967.6,1021.2,1969,1021.9z"/>
<path class="st0" d="M766.2,986.9c3.8-1,7.5-2.2,11.7-1.7c0.1,1.2,0.4,2.5,0.4,3.7c0,6.4,0,12.8,0,19.2c0,1.3,0,2.6,0.1,3.8
	c0.7,5.5,5.4,8.7,10.7,7.3c2.9-0.7,5.2-2.5,6.9-4.9c0.6-0.8,0.9-2.1,0.9-3.1c0.1-6.2,0.1-12.5,0-18.7c-0.1-3.7-0.7-4.2-4.4-5.1
	c-0.5-0.1-0.9-0.2-1.4-0.3c-0.1,0-0.2-0.2-0.3-0.3c0.2-0.2,0.3-0.7,0.5-0.7c3.8-0.2,7.5-1.4,11.2-0.9c1.2,1.6,0.9,3.3,0.9,4.8
	c0,6.9,0,13.8,0,20.6c0,1.1,0,2.2,0,3.4c0.2,5.1,0.5,5.5,5.2,7.3c-2,1.3-5,1.7-11,1.3c-0.2-0.8-0.4-1.7-0.6-2.6
	c-0.2-0.9-0.3-1.7-0.6-3.2c-1.5,1.3-2.5,2.2-3.6,3.1c-2.6,2.1-5.5,3.2-8.8,3.3c-6.7,0.1-11.6-4.2-12.1-11c-0.2-2.7-0.1-5.4-0.1-8.2
	c0-3.7,0-7.4,0-11c-0.1-3.9-0.6-4.5-4.4-5.7C767,987.2,766.6,987,766.2,986.9z"/>
<path class="st0" d="M1148.5,1021.9c-5.5,0.3-10.9,0.3-17,0c0.9-0.6,1.3-1,1.6-1.1c3.2-0.4,4.1-2.7,4.1-5.5c0-6.1,0.1-12.2-0.1-18.2
	c0-1.7-0.5-3.5-1.3-5c-1.9-3.6-6.5-4.8-10.5-3.1c-2.7,1.2-4.8,3.2-6.5,5.5c-0.9,1.1-0.9,2.4-0.9,3.6c0,5.3,0.1,10.6,0,15.8
	c-0.1,3.5,0.8,6.4,4.6,7.3c0,0,0,0.3,0,0.6c-5.4,0-10.7,0-16.4,0c0.5-0.5,0.7-0.9,1-1c2.9-0.4,3.9-2.4,4.2-5c0.1-1,0.1-1.9,0.1-2.9
	c0-6.2,0-12.5,0-18.7c0-0.8,0-1.6-0.1-2.4c-0.3-2.5-1.3-4.3-4-4.6c-0.3,0-0.5-0.3-0.8-0.4c0.1-0.3,0.1-0.7,0.3-0.8
	c3.5-0.4,6.9-1.4,10.7-0.9c0.2,1.9,0.5,3.7,0.8,5.9c0.9-0.4,1.6-0.7,2.2-1.1c1.8-1.3,3.5-2.8,5.5-3.8c4.5-2.2,9-1.9,13.1,1.2
	c3.3,2.5,4.5,6.1,4.6,10.1c0.1,4.8,0,9.6,0.1,14.4c0,1.3,0,2.6,0.1,3.8c0.1,2.5,1.1,4.3,3.7,4.9c0.3,0.1,0.6,0.3,0.8,0.5
	C1148.4,1021.3,1148.4,1021.5,1148.5,1021.9z"/>
<path class="st0" d="M149.1,1021.6c0.5-0.3,0.8-0.7,1.2-0.8c3.2-0.4,4.2-2.6,4.2-5.5c0-6.1,0-12.2,0-18.2c0-0.8-0.2-1.6-0.3-2.4
	c-0.9-5-6-7.8-11.1-6c-3.1,1.1-5.5,3.3-7.2,6.1c-0.6,0.9-0.7,2.1-0.7,3.2c-0.1,5.4,0,10.9,0,16.3c0,3.4,1,5.9,4.6,6.9
	c0,0,0,0.3,0,0.7c-0.7,0.1-1.4,0.2-2.2,0.2c-4.4,0-8.9,0-13.5,0c0.2-0.6,0.3-1,0.4-1.1c2.8-0.6,3.9-2.6,4.1-5.2
	c0.1-1.6,0.1-3.2,0.1-4.8c0-5.3,0-10.6,0-15.8c0-1.1,0-2.2-0.1-3.4c-0.3-2.2-1.1-4-3.6-4.4c-0.5-0.1-0.9-0.3-1.3-0.5
	c0.1-0.3,0.2-0.8,0.3-0.8c3.5-0.4,6.9-1.4,10.7-0.9c0.2,1.9,0.5,3.7,0.7,6c0.9-0.4,1.6-0.7,2.2-1.1c1.8-1.3,3.5-2.8,5.5-3.8
	c4.9-2.5,10.6-1.5,14.2,2.2c2.6,2.7,3.6,6,3.6,9.6c0,4.6,0,9.3,0,13.9c0,1.3,0,2.6,0,3.8c0.1,2.5,1.1,4.3,3.7,4.9
	c0.4,0.1,0.7,0.5,1.2,0.8C162,1022.3,153.5,1022.3,149.1,1021.6z"/>
<path class="st0" d="M418.7,1023.2c-5.2,0.1-9.8-1.3-13.6-4.8c-6.2-5.7-7.8-12.7-5.3-20.5c2.5-7.7,8.4-11.9,16.4-12.8
	c5.8-0.7,11.1,0.7,15.7,4.4c6.8,5.6,7.8,14.4,5.7,20.9c-2.3,7.2-8.6,12-16.4,12.7C420.3,1023.1,419.5,1023.2,418.7,1023.2z
	 M431.6,1004.3c-0.1,0-0.2,0-0.3-0.1c-0.1-1.4-0.1-2.9-0.2-4.3c-0.4-3.2-1.4-6.3-3.3-8.9c-4.6-6.2-13.4-6.3-18.2-0.2
	c-5.1,6.5-4.9,20.3,0.1,26.8c4.3,5.5,14.1,5.6,17.9-0.2c1-1.6,2.1-3.3,2.6-5.1C430.9,1009.7,431.1,1007,431.6,1004.3z"/>
<path class="st0" d="M511.8,1023.3c-1.3-0.2-3.6-0.4-5.7-1c-7.1-2.1-14.1-9.1-13.1-19.9c0.9-10.4,9.1-16.6,17.5-17.3
	c6.2-0.5,11.8,0.9,16.3,5.3c6,5.7,7.1,12.7,4.7,20.3c-2.4,7.6-8.1,11.6-16,12.5C514.6,1023.2,513.7,1023.2,511.8,1023.3z
	 M525.8,1004c-0.3-3.6-0.7-7.1-2.3-10.3c-2.2-4.6-5.6-7.3-10.9-7.3c-5.2,0.1-8.6,2.9-10.7,7.5c-1.3,2.8-1.8,5.8-1.9,8.9
	c-0.2,4.7,0.6,9.2,2.9,13.4c4.1,7.3,15.2,7.3,19.3,0.5c0.8-1.4,1.7-2.8,2.1-4.3C525,1009.7,525.3,1006.8,525.8,1004z"/>
<path class="st0" d="M866.6,1023.2c-4.9,0.1-8.6-0.7-12-2.9c-6.7-4.3-10.2-11.5-8.4-20.3c1.6-8.1,8.4-14.1,16.7-14.9
	c7.1-0.7,13.4,1,18.1,6.6c5,5.9,5.9,12.7,3.1,19.8c-2.7,6.8-7.9,10.6-15.2,11.6C867.8,1023.1,866.7,1023.2,866.6,1023.2z
	 M878.4,1004.5c0-4.7-0.9-8.9-2.7-12c-2.7-4.6-7.1-6.8-12.1-5.9c-4.3,0.8-7.2,3.4-8.8,7.4c-2.7,6.8-2.7,13.7,0.1,20.5
	c0.5,1.2,1.2,2.3,2,3.3c1.9,2.3,4.4,3.6,7.4,3.9c5.2,0.5,9-1.6,11.5-6.1C877.8,1012.1,878.4,1008.4,878.4,1004.5z"/>
<path class="st0" d="M1925.6,1023.2c-9.8,0-17.4-5.2-19.6-13.6c-3.6-13.8,6-23.8,17.2-24.6c6.2-0.4,11.8,1,16.2,5.5
	c5.8,5.8,7,12.8,4.4,20.3c-2.6,7.3-8.1,11.3-15.8,12.2C1927.1,1023.1,1926.1,1023.2,1925.6,1023.2z M1912.5,1003.5
	c0,5.6,0.8,9.1,2.4,12.2c4,7.9,15.7,8.2,20.1,0.5c1.4-2.4,2.2-5,2.6-7.7c0.8-5.5,0.3-10.9-2.4-15.8c-2.3-4.4-6-6.5-11-6.2
	c-4.4,0.3-7.4,2.7-9.5,6.4C1912.9,996.4,1912.3,1000.2,1912.5,1003.5z"/>
<path class="st0" d="M1099.9,1004.1c0.4,11-8.5,18.9-18,19c-2.7,0-5.5,0-8-0.8c-9-2.5-14.1-10.6-13.4-20.1
	c0.6-8.4,7.2-16.1,17.1-17.2c2.7-0.3,5.4-0.2,8.1,0.5C1094.5,987.9,1099.9,994.9,1099.9,1004.1z M1093.1,1004.2
	c-0.4-4.1-0.8-8-2.9-11.6c-2.4-4.3-6.1-6.5-11.1-6.1c-4.2,0.3-7.1,2.5-9.2,6c-1.7,3-2.3,6.3-2.6,9.6c-0.4,4.9,0.4,9.6,2.8,13.9
	c4,7.4,14.9,7.4,19,1.2c1-1.4,1.9-3,2.4-4.7C1092.3,1009.9,1092.6,1007,1093.1,1004.2z"/>
<path class="st0" d="M2107.5,1017c0.4,3-0.9,5-3.6,5.8c-3,0.9-4.9,0.1-8.8-3.9c-1.2,0.9-2.4,1.8-3.7,2.7c-4.1,2.7-10.3,1.9-13.6-1.7
	c-3.8-4.2-3.2-10.3,1.6-13.2c2.7-1.6,5.8-2.5,8.8-3.7c2.4-0.9,5-1.2,7.2-2.9c0.1-1.2,0.2-2.5,0.2-3.7c-0.4-7.8-7.8-9.5-12.4-7.3
	c-1.8,0.9-3.2,2.1-4.3,3.6c-0.7,0.8-0.7,2.2-2.1,2.5c-0.1-0.4-0.4-0.9-0.2-1.2c2.8-8.1,11.5-11.4,19.2-7.8c3.5,1.7,5.7,4.6,6.2,8.5
	c0.2,1.6,0.3,3.2,0.3,4.8c0,4.5,0,8.9,0.1,13.4c0,1.7,0.3,3.5,0.6,5.2c0.3,1.4,2,1.8,3.1,0.9c0.4-0.3,0.6-0.7,0.9-1.1
	C2107,1017.7,2107.2,1017.4,2107.5,1017z M2095.2,1002.8c-2.4,0.2-4.2,1-5.9,1.7c-1.5,0.6-3,1.2-4.3,2.1c-3.3,2.3-4,7.3-1.7,10.7
	c2.1,3.1,6.1,3.4,9.7,0.7c1.2-0.9,2.4-1.8,2.4-3.4C2095.6,1010.8,2095.9,1007,2095.2,1002.8z"/>
<path class="st0" d="M252,995.5c0-3.8,1.5-6.3,4.5-8.2c4.7-3,9.6-3.2,14.5-0.6c4.4,2.4,6,6.5,6.1,11.2c0.1,5.3,0,10.6,0.1,15.8
	c0,1.4,0.1,2.9,0.4,4.3c0.3,1.6,2.1,2,3.4,0.9c0.6-0.5,1-1.1,1.5-1.7c0.9,1.1,0.4,1.9-0.1,2.7c-0.7,1.3-1.7,2.3-3.1,2.9
	c-3.2,1.2-5.6,0.2-8.9-3.7c-1.8,0.1-2.6,1.7-3.8,2.6c-2.7,2-8.8,2.1-11.9,0c-5.5-3.6-6-12.3,0.4-15.4c2.6-1.2,5.3-2.2,8-3.2
	c1.9-0.7,3.9-1.3,5.9-2c1.2-0.4,1.7-1.4,1.8-2.6c0.1-2.1-0.3-4.2-1.2-6c-1.8-3.5-6.3-5.1-10.4-3.7c-2,0.7-3.7,1.9-5,3.6
	C253.3,993.4,252.6,994.5,252,995.5z M270.1,1002.6c-3.4,0.8-6.2,1.8-8.9,3.1c-3.2,1.6-4.5,4.2-4.3,7.8c0.2,3.4,2.4,6,5.4,6.3
	c3.7,0.3,8-2.4,8.2-5.7C270.8,1010.5,271,1006.8,270.1,1002.6z"/>
<path class="st0" d="M1000.5,1016.5c-0.1,3.2-1.3,5.1-3.6,6.2c-1.8,0.8-3.9,0.9-5.6-0.1c-1.4-0.9-2.5-2.3-3.9-3.6
	c-1.3,1-2.5,2-3.8,2.8c-3.8,2.4-9.6,1.8-12.9-1.3c-3.9-3.6-4.4-10.7,1.2-13.9c2.6-1.5,5.5-2.4,8.4-3.5c2.4-0.9,4.8-1.6,7.3-2.4
	c0.2-1.3,0.4-2.4,0.4-3.5c0-3.8-1.4-6.9-5.2-8.3c-3.8-1.4-7.3-0.5-10.1,2.3c-1.2,1.2-2.1,2.7-3.2,4.1c-1-0.2-0.8-0.9-0.6-1.4
	c2.9-7.3,10.3-10.7,17.6-8.1c4.7,1.7,7.3,5,7.8,9.9c0.2,1.7,0.2,3.5,0.2,5.3c0,4.3,0,8.6,0,12.9c0,1.6,0.3,3.2,0.7,4.7
	c0.3,1.1,1.9,1.5,2.8,0.8c0.5-0.4,0.8-1,1.2-1.5C999.4,1017.5,999.7,1017.2,1000.5,1016.5z M987.5,1003.1c-3.8,0.3-8.8,2.1-10.8,3.9
	c-2.4,2.1-3.2,5.6-1.9,8.8c1.1,2.8,3.1,4.2,5.9,4c3.1-0.2,6.8-2.4,7-4.9C988.1,1011,988.3,1007,987.5,1003.1z"/>
<path class="st0" d="M305.7,1022.1c-5.1,0-10.2,0-15.3,0c-0.6,0-1.2-0.1-1.8-0.2c0.2-1.1,1-0.9,1.5-1c2.6-0.5,3.7-2.3,3.8-4.8
	c0.1-1.1,0.1-2.2,0.1-3.4c0-15.2,0-30.4,0-45.6c0-0.2,0-0.3,0-0.5c0.1-4.8-0.6-6.4-5.6-7.1c-0.1,0-0.2-0.2-0.5-0.4
	c0.4-0.3,0.7-0.7,1.1-0.7c3.6-0.4,7.2-0.9,10.9-0.7c0.9,1.7,0.6,3.3,0.6,4.9c0,16.3,0,32.6,0,48.9c0,1.6,0,3.2,0.2,4.8
	c0.2,2.3,1.2,3.9,3.7,4.4c0.4,0.1,0.9,0.4,1.3,0.6C305.7,1021.6,305.7,1021.8,305.7,1022.1z"/>
<path class="st0" d="M116.6,999.6c-9,0.4-17.6-0.1-26,0.3c-1.4,7.6,1.6,15.1,7.3,18.9c4.6,3,9.9,3,14.4-0.2c1.4-1,2.7-2.2,4.1-3.3
	c0.9,0.6,0.4,1.2,0,1.6c-3.3,4.1-7.5,6.2-12.9,6.3c-6.2,0.1-11.7-1.5-15.9-6.3c-8.7-9.8-4.6-28,9.7-31.6c8.6-2.1,17.4,3.1,19.4,11.3
	C116.7,997.4,116.6,998.2,116.6,999.6z M110,997.8c0.5-6.3-3.3-11-9.3-11.3c-2.8-0.1-5.4,0.7-7.4,2.7c-2.3,2.4-3.6,5.2-3.1,8.6
	C94,998.8,106.4,998.7,110,997.8z"/>
<path class="st0" d="M1282,1015.4c-3,4.3-6.9,7.2-12.4,7.7c-6.5,0.5-12.4-0.8-17-5.7c-2.8-3-4.4-6.6-4.7-10.7
	c-0.5-6.8,1.2-12.7,6.4-17.3c7.3-6.5,18.3-5.8,24.3,1.7c1.1,1.3,1.8,3,2.5,4.6c0.5,1.2,0.6,2.5-0.2,3.8c-4.2,0.6-8.5,0.2-12.8,0.3
	c-4.3,0.1-8.6-0.2-13.1,0.3c-0.1,1.2-0.4,2.1-0.3,3c0.4,4,1.2,7.9,3.5,11.3c3.5,5.2,9.2,7.6,14.9,6.2c2.1-0.5,3.8-1.6,5.4-3
	c1.1-0.9,2.1-1.9,3.1-2.8C1281.5,1014.9,1281.8,1015.2,1282,1015.4z M1274.5,997.9c0.3-4-0.3-6.1-2.3-8.2c-1.9-2.1-4.4-3.2-7.2-3.3
	c-6.1-0.1-10.1,4.3-10.2,11.3C1258.1,998.7,1269.3,998.8,1274.5,997.9z"/>
<path class="st0" d="M1676.9,1015.1c-2.7,5.2-6.9,8.1-12.6,8c-2.5,0-5.2-0.1-7.6-0.7c-8.5-2.3-15.3-10.6-12.8-22.5
	c1.5-7.3,5.9-12.3,13.2-14.4c6.5-1.9,13.4,0.5,17.5,5.9c1.8,2.3,2.2,3.8,2.1,7.8c-0.8,0.2-1.7,0.4-2.6,0.5c-6.2,0-12.5,0-18.7,0
	c-1.6,0-3.2-0.2-4.6,0.4c-1.3,7.1,1.5,14.5,7,18.3c4.8,3.4,10.4,3.3,15.1-0.2C1674.3,1017.3,1675.6,1016.2,1676.9,1015.1z
	 M1650.7,998.4c3.5,0,6.7,0.2,9.8,0.1c3.3-0.1,6.7,0.6,9.8-0.6c0.2-6.9-3.6-11.3-9.5-11.4c-2.9,0-5.4,0.9-7.3,3
	C1651.4,991.8,1650.2,994.5,1650.7,998.4z"/>
<path class="st0" d="M1794.4,999.5c-4.3,0.5-8.5,0.1-12.8,0.2c-4.3,0.1-8.5-0.2-12.7,0.2c-1.9,8,2.6,17.3,9.7,20.1
	c4.3,1.7,8.5,1.1,12.2-1.7c1.4-1,2.7-2.2,4.4-3.6c-0.1,0.9,0,1.4-0.2,1.6c-4.9,6.7-11.8,7.9-19.3,6.3c-7.1-1.5-12-6-13.8-13.1
	c-2.1-8.6,0.7-16.5,7.2-21.3c7.4-5.5,17.6-4.1,23.1,3C1794.2,993.6,1795.4,996.1,1794.4,999.5z M1788.1,998c0.7-4.5-0.8-8-4.3-10.1
	c-3.6-2.1-8.1-1.8-11.3,0.7c-1.7,1.3-2.8,3.1-3.4,5.1c-0.5,1.5-1,3-0.1,4.5C1774,998.7,1784.5,998.6,1788.1,998z"/>
<path class="st0" d="M206.2,999.6c-9,0.4-17.4-0.1-26,0.3c-0.2,1.2-0.6,2.1-0.4,3c0.4,2.7,0.9,5.4,1.7,7.9c0.8,2.6,2.4,4.8,4.6,6.6
	c5.3,4.5,11.6,4.7,17,0.4c1.1-0.9,2.2-1.8,3.6-3.1c0,0.8,0.1,1.3,0,1.5c-4.9,6.7-11.7,8-19.2,6.5c-7.1-1.4-11.9-5.9-13.9-13
	c-3-10.6,3-21.6,13.2-24.2c6.7-1.8,13.9,0.8,17.7,6.5c0.8,1.2,1.4,2.5,1.7,3.9C206.4,996.9,206.2,998,206.2,999.6z M180.1,998.4
	c3.5,0,6.7,0.2,9.9,0.1c3.3-0.1,6.6,0.6,9.8-0.5c0.2-6.9-3.6-11.3-9.5-11.4C184.2,986.4,180.2,990.8,180.1,998.4z"/>
<path class="st0" d="M826.4,973.6c1.3,4,0,8,1.1,11.8c3.8,1.3,7.9-0.3,11.5,1c0.1,1.2-0.6,1.4-1.2,1.4c-1.9,0.1-3.8,0.1-5.7,0.2
	c-1.6,0.1-3.2-0.2-4.8,0.9c-0.1,1-0.3,2.1-0.3,3.2c0,6.4,0,12.8,0,19.2c0,0.6,0,1.3,0,1.9c0.4,5.5,4.7,8.2,9.8,6.2
	c1.3-0.5,2.4-1.3,3.9-2.1c-0.2,2-1.5,2.7-2.6,3.5c-3.1,2.5-6.7,3-10.4,2.2c-3.8-0.8-6.1-3.4-6.9-7.1c-0.3-1.5-0.3-3.2-0.3-4.8
	c0-5.6,0-11.2,0-16.8c0-1.7-0.1-3.5-0.1-5.1c-1.9-1.8-4.2-0.7-6.2-1.6c0.1-0.5,0.1-1.1,0.4-1.3c4.4-2.8,7.7-6.6,10.3-11.1
	C825.1,974.5,825.6,974.2,826.4,973.6z"/>
<path class="st0" d="M1862,973.2c1.1,4.5,0,8.2,1,12c0.8,0.2,1.7,0.6,2.6,0.6c2.4,0.1,4.8,0.1,7.2,0.1c0.8,0,1.5,0.1,2.3,0.9
	c-1.1,1.2-2.4,1-3.6,1.1c-1.4,0-2.9,0-4.3,0c-1.3,0.1-2.5,0.2-4,0.4c-0.2,1-0.5,1.9-0.5,2.8c0,6.9,0,13.7,0,20.6c0,0.2,0,0.3,0,0.5
	c0.3,6.8,5.3,9.6,11.3,6.4c0.7-0.4,1.3-0.9,2-1.3c1,0.6,0.4,1.1,0,1.5c-3.1,3.4-7,4.8-11.6,4.2c-3.9-0.6-7.1-3.5-7.7-7.4
	c-0.3-1.6-0.3-3.2-0.3-4.8c0-5.8,0-11.5,0-17.3c0-1.6-0.1-3.2-0.2-4.4c-1.9-1.9-4.4-0.5-6.4-1.9c1.8-2.5,4.7-3.6,6.5-6
	C1857.9,978.8,1859.6,976.4,1862,973.2z"/>
<path class="st0" d="M545.3,988.5c-2.1-0.3-4-0.6-6-0.9c0.1-0.6,0.1-1.2,0.3-1.4c4.4-2.8,7.7-6.7,10.3-11.2c0.2-0.4,0.7-0.6,1.2-1.1
	c1.2,1.9,0.6,3.8,0.7,5.6c0.1,1.9-0.2,3.8,0.7,6c3.8,0.9,7.8,0,11.5,0.6c0.2,1.2-0.3,1.6-1,1.7c-1.8,0.1-3.5,0.1-5.3,0.2
	c-1.7,0-3.5-0.1-5.4,0.6c-0.2,1.1-0.5,2.1-0.5,3.2c0,6.4,0,12.8,0,19.2c0,1,0.1,1.9,0.2,2.9c1,6.2,5.9,7,10,5.5
	c1.2-0.4,2.2-1.2,3.3-1.8c0.9,0.8,0.1,1.2-0.3,1.6c-3,3.3-6.8,4.6-11.2,4c-3.7-0.5-6.2-2.5-7.5-5.9c-0.6-1.8-0.9-3.7-0.9-5.6
	c-0.1-6.1,0-12.1-0.1-18.2C545.5,991.8,545.4,990.2,545.3,988.5z"/>
<path class="st0" d="M1010.8,988.5c-2.1-0.3-4-0.6-6-0.9c0.2-0.6,0.2-1.2,0.4-1.4c4.4-2.8,7.7-6.7,10.3-11.2c0.2-0.4,0.7-0.6,1.2-1
	c1,1.2,0.6,2.5,0.7,3.7c0.1,1.3,0,2.6,0,3.8c0.1,1.2,0.3,2.5,0.4,3.8c4,1.3,8.1-0.2,11.8,0.9c0.2,1.1-0.4,1.5-1,1.5
	c-1.8,0.1-3.5,0.1-5.3,0.2c-1.7,0-3.5-0.1-5.4,0.6c-0.2,0.9-0.5,1.8-0.5,2.7c0,6.6-0.1,13.1,0,19.7c0,1.3,0.2,2.6,0.5,3.8
	c0.9,3.6,3.3,5.3,7,5.2c2.3-0.1,4.2-1.3,6-2.5c0.9,0.9,0.1,1.3-0.2,1.7c-2.9,3.1-6.5,4.5-10.8,4.1c-4.1-0.4-6.9-2.5-8.1-6.4
	c-0.6-1.8-0.8-3.8-0.8-5.6c-0.1-5.9,0-11.8,0-17.7C1011,991.8,1010.9,990.2,1010.8,988.5z"/>
<path class="st0" d="M245,987.6c-0.4,2.2-1.2,3.8-2.4,5.6c-1.7-0.7-3.3-1.4-4.9-1.9c-4-1.3-8.2-0.1-10.6,3.3
	c-0.5,0.7-0.8,1.8-0.8,2.7c-0.1,6.1,0,12.1,0,18.2c0,3,1,4.9,4.2,5.4c0.2,0,0.4,0.4,0.8,1c-5.7,0.4-11.1,0.3-16.7,0.1
	c0.3-0.5,0.4-0.9,0.6-0.9c3.4-0.4,4.4-2.8,4.5-5.8c0.1-2.4,0.1-4.8,0.1-7.2c0-4.3,0-8.6,0-12.9c0-1.4-0.2-2.9-0.4-4.3
	c-0.2-1.6-1.2-2.6-2.7-3c-1.1-0.3-2.3-0.5-4-0.9c3.9-1.4,9.2-1.9,13.2-1.4c0.1,1,0.3,2.1,0.4,3.1c0.1,1,0.3,2.1,0.5,3.7
	c1.3-0.9,2.2-1.5,3.1-2.1c1.7-1.2,3.3-2.6,5-3.7C238.6,984.1,240.7,984.4,245,987.6z"/>
<path class="st0" d="M1701.2,1021.9c-5.4,0-10.8,0-16.3,0c0.2-0.4,0.3-0.9,0.5-0.9c3.3-0.5,4.5-2.7,4.7-5.7c0.1-1.6,0.1-3.2,0.1-4.8
	c0-5.1,0-10.2,0-15.4c0-1.3-0.1-2.6-0.3-3.8c-0.3-2.1-1.5-3.5-3.7-3.8c-0.9-0.2-1.8-0.3-3-0.5c2.6-1.4,7.9-2.1,12.7-1.7
	c1.5,1.9,0,4.4,1.4,6.6c0.9-0.5,1.9-1,2.7-1.6c2-1.4,3.8-3,5.9-4.2c3.6-2,5.9-1.6,9.7,1.7c-0.3,0.8-0.5,1.7-0.8,2.5
	c-0.4,0.9-0.8,1.7-1.3,2.6c-2.2,0.1-3.7-1.2-5.5-1.8c-2.8-1-5.3-0.5-7.7,1c-2.5,1.6-3.8,3.5-3.6,6.7c0.2,5.1,0.1,10.2,0.1,15.4
	c0,0.8,0,1.6,0.1,2.4c0.2,1.9,1,3.3,3,3.9c0.6,0.2,1.1,0.4,1.7,0.7C1701.3,1021.5,1701.3,1021.7,1701.2,1021.9z"/>
<path class="st0" d="M1360,985.5c0.3,3.4,0.5,6.4-0.1,9.3c-1.1,0.3-1.3-0.3-1.5-0.9c-0.4-1-0.7-2.1-1.3-3.1c-2-3.1-4.8-4.6-8.5-4.4
	c-2.4,0.2-4.3,1.1-5.2,3.5c-0.8,2.2-0.2,4.7,2,6.4c1.6,1.2,3.5,2.1,5.3,3.2c2.4,1.3,4.8,2.5,7.1,4c3.2,2.1,4.5,5.3,4.4,9
	c-0.2,5.7-4.6,10.2-10.4,10.5c-2.5,0.1-4.8-0.5-7-1.5c-2.2-1-4.3-1.5-6.4,1.1c-1-4-0.7-7.3-0.4-10.6c1.2-0.3,1.3,0.5,1.5,1
	c0.7,2,1.8,3.7,3.3,5.2c2.4,2.4,5.3,3.4,8.7,3.2c2.7-0.2,4.7-1.4,5.6-3.8c0.9-2.5,0.9-5.1-1.1-7.2c-1-1-2.2-1.9-3.4-2.6
	c-1.8-1-3.8-1.8-5.6-2.8c-1.8-1-3.7-1.9-5.3-3.2c-4-3.2-4.6-8.2-1.7-12.4c2.5-3.6,7-5.5,11.3-4.6c0.6,0.1,1.2,0.4,1.8,0.6
	C1356.3,986.7,1356.3,986.7,1360,985.5z"/>
<path class="st0" d="M1754.4,1015.3c-2.2,4.6-6.2,6.9-11.1,7.7c-1.6,0.3-3.2,0.3-4.8,0.3c-8.6,0.1-15.8-5.9-17.1-15
	c-0.9-6.5,0.7-12.4,5.2-17.3c4.7-5.1,10.6-6.9,17.4-5.4c0.8,0.2,1.6,0.4,2.3,0.6c3.9,1,3.9,1,7.2-0.4c1,3.2,1,7.3-0.1,11.4
	c-0.9-1.6-1.6-3-2.4-4.3c-2.3-3.8-5.6-6-10.1-6.2c-4.4-0.2-7.7,1.6-10.2,5.1c-1.8,2.6-2.6,5.5-2.9,8.5c-0.4,5.6,0.8,10.8,4.3,15.3
	c4.4,5.6,10.1,6.6,16.2,3.7C1750.5,1018.1,1752.4,1016.6,1754.4,1015.3z"/>
<path class="st0" d="M635.6,1022.2c-0.7-3.3-0.3-6.7-0.3-9.9c1-0.5,1.3,0.1,1.6,0.6c0.6,1.1,1,2.4,1.7,3.4c2.4,3.5,5.7,5.5,10.1,5.3
	c2.8-0.1,5.2-1.6,5.9-4.1c0.9-2.8,0.6-5.4-1.7-7.5c-1.1-0.9-2.3-1.7-3.6-2.4c-1.7-0.9-3.5-1.6-5.2-2.5c-1.7-0.9-3.4-1.8-4.9-3
	c-4.3-3.4-4.8-8.9-1.4-13.2c2.9-3.5,6.7-4.8,11.1-3.9c0.3,0.1,0.6,0.2,0.9,0.3c3.8,1.1,3.8,1.1,7.5,0.2c0.5,3.1,0.7,6.1-0.1,9.2
	c-1.7-0.2-1.4-1.4-1.8-2.2c-1.1-2.6-2.8-4.6-5.5-5.7c-1.7-0.7-3.4-0.8-5.2-0.4c-4.3,1-5.8,5.7-2.9,9c0.9,1,2.2,1.9,3.4,2.6
	c1.5,0.9,3.2,1.5,4.7,2.4c1.7,0.9,3.4,1.9,5,2.9c4.6,3,5.3,8.1,4,12.3c-1.4,4.5-5.7,7.6-10.6,7.4c-1.9-0.1-3.8-0.6-5.6-1.2
	C639.3,1020.7,639.3,1020.6,635.6,1022.2z"/>
<path class="st0" d="M628.6,1015.4c-2.9,4.4-6.7,6.7-11.4,7.5c-2.2,0.4-4.5,0.3-6.7,0.2c-8.6-0.4-14.7-7.8-15.4-14.5
	c-0.8-7.1,0.7-13.3,5.9-18.4c4.4-4.4,9.8-5.8,15.8-4.9c0.9,0.1,1.9,0.4,2.8,0.7c4.1,1,4.1,1,7.8-0.3c0.6,3.5,0.2,7,0.3,10.3
	c-1,0.5-1.3,0.1-1.7-0.5c-0.6-1.1-1.1-2.3-1.8-3.4c-5.2-7.8-15.9-7.5-20.6,0.6c-3.5,6-3.5,18.8,4.6,25.4c3.6,2.9,7.6,3.4,11.7,1.9
	c2.2-0.8,4.2-2.3,6.2-3.5C626.8,1016.1,627.2,1015.3,628.6,1015.4z"/>
<path class="st0" d="M570.1,986.5c4-1.2,7.7-1.6,11.8-1.1c0.1,1.2,0.4,2.4,0.4,3.6c0,7.8,0,15.6,0,23.4c0,1.1,0,2.2,0,3.3
	c0,2.5,0.8,4.4,3.5,4.9c0.4,0.1,0.8,0.4,1.3,0.7c-3,0.9-11.1,1.1-17.2,0.4c0.4-1.2,1.5-0.9,2.4-1.1c2-0.4,3-1.7,3.3-3.6
	c0.2-1.1,0.3-2.2,0.3-3.3c0-6.4,0-12.7,0-19.1c0-0.6,0-1.3-0.1-1.9c-0.4-3.8-0.9-4.4-4.7-5.4c-0.3-0.1-0.6-0.2-0.8-0.4
	C570.1,986.9,570.1,986.7,570.1,986.5z"/>
<path class="st0" d="M1035,986.6c5.7-1.4,8.4-1.7,12.2-1.1c1,1.4,0.6,3.1,0.6,4.6c0,7.3,0,14.7,0,22c0,1.1,0,2.2,0,3.3
	c-0.1,2.9,1,4.9,4.1,5.5c0.2,0,0.4,0.4,0.6,0.6c-3.4,0.8-12.7,0.8-17.9,0c1.6-0.4,2.4-0.7,3.3-0.9c2.1-0.3,2.9-1.8,3.2-3.6
	c0.2-0.9,0.2-1.9,0.2-2.9c0-6.7,0-13.4,0-20.1c0-0.5,0-1,0-1.4c-0.4-3.7-0.9-4.3-4.8-5.3C1036.1,987.2,1035.8,987,1035,986.6z"/>
<path class="st0" d="M1368.6,986.8c4-1,7.8-2.2,11.7-1.6c1,1.7,0.7,3.3,0.7,4.9c0,7.3,0,14.7,0,22c0,1.1,0,2.2,0,3.4
	c0,2.6,0.9,4.7,3.8,5.3c0.3,0.1,0.5,0.3,0.7,0.5c-2.4,1-6.5,1.1-16.4,0.6c0.1-1.3,1.3-1.1,2-1.3c2.2-0.5,3.2-1.9,3.4-4
	c0.1-1.1,0.1-2.2,0.1-3.3c0-6.1,0-12.1,0-18.2c0-0.8,0-1.6,0-2.4c-0.2-3.7-0.8-4.4-4.7-5.4C1369.5,987.2,1369.1,987,1368.6,986.8z"
	/>
<path class="st0" d="M1897.1,1022c-5.4,0-10.8,0-16.3,0c0-1.5,1.3-1.2,2-1.3c2.2-0.5,3.2-2,3.4-4.1c0.1-1,0.1-1.9,0.1-2.9
	c0-6.4,0-12.8,0-19.2c0-0.8,0-1.6,0-2.4c-0.3-3.1-1-3.9-4.3-4.8c-0.6-0.1-1.1-0.3-2-0.5c3.6-1.4,8.5-1.9,12.5-1.3
	c0.1,1.5,0.2,3,0.2,4.6c0,7,0,14,0,21.1c0,1,0,1.9,0,2.9C1892.7,1018.8,1892.9,1019.1,1897.1,1022z"/>
<path class="st0" d="M673.3,1039c5-3.2,7.5-7.4,6.2-13.5c-1.4-0.5-2.8-0.8-4.1-1.4c-2.1-1-3-3-2.4-5.2c0.5-1.8,2.2-3.2,4.2-3.3
	c2.7-0.2,5.1,1.3,6.4,4.1c1.8,3.9,1.5,7.8-0.2,11.6C681.6,1035.6,678,1038.4,673.3,1039z"/>
<path class="st0" d="M1161.8,1038.9c2.7-2.4,5.5-4.5,6.2-8.2c0.3-1.6,0.3-2.3-0.3-5.3c-1.1-0.3-2.3-0.6-3.5-1.1
	c-2.4-1-3.4-3-2.8-5.4c0.6-2.2,2.6-3.5,5.2-3.3c2.9,0.3,5.3,2.6,6.1,6c1.6,6.6-1.1,13-7,16.4
	C1164.6,1038.6,1163.5,1039.6,1161.8,1038.9z"/>
<path class="st0" d="M1893.5,970.4c-0.2,2.5-1.9,3.9-4.5,3.7c-2.1-0.2-3.8-2.1-3.7-4.1c0.1-2.3,2.1-4.1,4.4-4
	C1892,966,1893.7,967.9,1893.5,970.4z"/>
<path class="st0" d="M1382,970.3c-0.1,2.5-1.8,4-4.4,3.8c-2.1-0.1-3.8-1.9-3.8-4c0-2.3,1.9-4.2,4.2-4.2
	C1380.3,965.9,1382.1,967.8,1382,970.3z"/>
<path class="st0" d="M583.2,969.9c0.1,2.3-1.8,4.2-4.2,4.2c-2.3,0-3.9-1.5-4-3.7c-0.2-2.4,1.5-4.3,3.8-4.5
	C581.1,965.8,583.1,967.7,583.2,969.9z"/>
<path class="st0" d="M1044.3,974.1c-2.5-0.1-4-1.9-3.8-4.4c0.1-2.1,1.9-3.8,4.1-3.8c2.3,0,4.2,2,4.1,4.3
	C1048.6,972.5,1046.7,974.2,1044.3,974.1z"/>
<path class="st0" d="M304.4,345.6c-0.1,0.3-0.2,0.7-0.1,0.3C304.3,346.3,304.3,345.9,304.4,345.6
	C304.3,345.6,304.4,345.6,304.4,345.6z"/>
<g>
	<path class="st1" d="M608.1-0.1H0.5c0,0,0,301.3,0,302.9C0.1,434.6,73.2,530.1,134.5,587c67.5,62.6,141.9,98.7,166.8,104.1l3,0.6
		l3-0.7c24.8-5.4,99.2-41.5,166.7-104.1c61.4-56.9,134.4-152.4,134-284.2C608.1,299,608.1-0.1,608.1-0.1z"/>
	<path class="st2" d="M15.8,15.9c0,0,0.8,176,0,175.2l577,0c0-82.5,0-175.2,0-175.2H15.8z M170.7,126.7L170.7,126.7
		c0.9,0.7,1.8,1.4,2.5,2.4c0.7,1,1,2.2,1,3.5c0,1.2-0.3,2.4-1,3.5c-0.6,1-1.6,1.7-2.5,2.4c-1.4,1.1-2.7,2.1-2.7,3.9v10.8l-63.7,0
		l-63.7,0v-10.8c0-1.8-1.3-2.8-2.7-3.9c-0.9-0.7-1.8-1.4-2.5-2.4c-0.7-1-1-2.2-1-3.5c0-1.2,0.3-2.4,1-3.5c0.6-1,1.6-1.7,2.5-2.4
		c1.4-1.1,2.7-2.1,2.7-3.9V87.6c0-1.8-1.3-2.8-2.7-3.9c-0.9-0.7-1.8-1.4-2.5-2.4c-0.7-1-1-2.2-1-3.5c0-1.2,0.3-2.4,1-3.5
		c0.7-1,1.6-1.7,2.5-2.4c1.4-1.1,2.7-2.1,2.7-3.9V57.1l1.6,0c7.4,0,14-0.2,18.5-2.1c1.9-0.8,3.6-1.9,5.4-3c3.9-2.5,8.3-5.2,14.9-5.2
		c5.3,0,10.2,2,14.6,3.7c3.1,1.2,6,2.4,8.2,2.4h0.9c2.2,0,5.1-1.2,8.2-2.4c4.4-1.8,9.3-3.7,14.6-3.7c6.6,0,11,2.8,15,5.2
		c1.8,1.1,3.5,2.2,5.4,3c4.6,1.9,11.1,2.1,18.5,2.1h1.6v11.1c0,1.8,1.3,2.8,2.7,3.9c0.8,0.7,1.8,1.4,2.5,2.4c0.7,1,1,2.2,1,3.5
		c0,1.2-0.3,2.4-1,3.5c-0.6,1-1.6,1.7-2.5,2.4c-1.4,1.1-2.7,2.1-2.7,3.9v35.2C168,124.6,169.3,125.6,170.7,126.7z M414.5,145.1
		c-9.9,15.8-28.9,19.6-29.6,19.8c-3.8,0.7-7.6,1-11.4,1h0c-19.9,0-38.2-8.6-56.8-18.3c-2.1-1.1-4.4-2.4-6.9-3.7
		c-11.9-6.5-28.5-15.6-42.5-15.6c-4.1,0-8,0.8-11.4,2.6l-0.6,0.3l0,0.7c-0.1,1.8-0.4,3.6-1,5.2c-2.2,6-9.6,12.4-13.1,14.9
		c-8.2,5.9-18.2,11.9-30.7,11.9c-1.9,0-3.6-0.3-5.2-0.8c-2.2-0.8-4.2-2.1-5.6-3.9c-0.7-0.9-1.3-1.9-1.7-3c-0.4-0.9-0.6-1.7-0.7-2.8
		l-0.1-0.7l-0.7-0.2c-4.8-1.5-7.7-4.6-7.7-8.5c0-2.9,2.1-5.4,4.2-7.9c3.2-3.8,6-7.1,1.5-11.5c-0.4-0.4-0.9-0.8-1.4-1.1
		c-0.7-0.5-1.3-1-1.9-1.6c-4-4.3-1.6-13.2-0.2-18.5l0.2-0.6c1.5-5.8,3.9-11.9,7.2-18.4c4.5-8.9,9.9-18.9,17.5-25.3
		c0.2-0.1,0.3-0.2,0.5-0.2c0.2,0,0.4,0.1,0.5,0.3c0.2,0.2,1,1.5,2.2,3.5l1.3,2.1l0.8-2.4c2.1-6.3,5.6-10.4,10.3-12.1
		c5.1-1.9,9.8,0.8,12.2,2.5l1,0.7l0.6-1.1c1.5-2.5,4.3-5.5,9-5.7c5.2-0.2,9.4,3.3,11.4,5.4l0.7,0.8l0.8-0.7
		c2.3-1.9,8.3-6.3,14.4-5.5c5.7,0.8,7.9,5.8,8.6,7.9l0.4,1.3l1.2-0.6c2.7-1.3,7.9-3.1,12.9,0c3.2,2,3.5,5.4,3.3,7.9l-0.1,1.5
		l1.5-0.2c3.7-0.6,10.5-1.1,14.6,3.1c3.2,3.3,3.4,7.5,3,10.4l-0.2,1.5l1.5-0.2c3.2-0.4,7.6-0.1,10,3.6c1.6,2.5,1,6,0.5,7.8l-0.3,1.1
		l1.1,0.3c1.9,0.5,5.2,1.6,6.2,4.3c0.7,2,0.5,5.4-0.6,9.2l-0.3,1l1,0.4c1.6,0.7,4.6,2.3,6.3,5.5c1.6,3.1,1.5,7-0.2,11.6l-0.3,0.7
		l0.6,0.5c4.2,3.8,8.5,7.2,12.7,10.2c8.5,6.2,21.7,9.4,30.7,2.1c3.4-2.8,4.9-7.9,3.8-12.7c-1-4.2-3.8-7.2-7.7-8
		c-6.8-1.5-12.2,5-16.5,11.5c-0.1,0.2-0.4,0.3-0.6,0.3c-0.3,0-0.5-0.2-0.6-0.4c-4-9.6-4.2-17.6-0.6-23.7c3.1-5.2,9-8.8,16.3-10
		l1-0.2l0-1c-0.1-11.4,2.6-19.7,8.1-24.7c3.3-3,9.5-6.3,19.8-5c0.2,0,0.4,0.2,0.5,0.3c0.1,0.2,0.1,0.4,0,0.6
		c-7.6,18.3-5.7,25.1-1.6,40.1c0.4,1.3,0.7,2.7,1.1,4.1v0C421.8,123.2,420.6,135.4,414.5,145.1z M570.7,126.7L570.7,126.7
		c0.9,0.7,1.8,1.4,2.5,2.4c0.7,1,1,2.2,1,3.5c0,1.2-0.3,2.4-1,3.5c-0.6,1-1.6,1.7-2.5,2.4c-1.4,1.1-2.7,2.1-2.7,3.9v10.8l-63.7,0
		l-63.7,0v-10.8c0-1.8-1.3-2.8-2.7-3.9c-0.9-0.7-1.8-1.4-2.5-2.4c-0.7-1-1-2.2-1-3.5c0-1.2,0.3-2.4,1-3.5c0.6-1,1.6-1.7,2.5-2.4
		c1.4-1.1,2.7-2.1,2.7-3.9V87.6c0-1.8-1.3-2.8-2.7-3.9c-0.9-0.7-1.8-1.4-2.5-2.4c-0.7-1-1-2.2-1-3.5c0-1.2,0.3-2.4,1-3.5
		c0.7-1,1.6-1.7,2.5-2.4c1.4-1.1,2.7-2.1,2.7-3.9V57.1l1.6,0c7.4,0,14-0.2,18.5-2.1c1.9-0.8,3.6-1.9,5.4-3c3.9-2.5,8.3-5.2,14.9-5.2
		c5.3,0,10.2,2,14.6,3.7c3.1,1.2,6,2.4,8.2,2.4h0.9c2.2,0,5.1-1.2,8.2-2.4c4.4-1.8,9.3-3.7,14.6-3.7c6.6,0,11,2.8,15,5.2
		c1.8,1.1,3.5,2.2,5.4,3c4.6,1.9,11.1,2.1,18.5,2.1h1.6v11.1c0,1.8,1.3,2.8,2.7,3.9c0.8,0.7,1.8,1.4,2.5,2.4c0.7,1,1,2.2,1,3.5
		c0,1.2-0.3,2.4-1,3.5c-0.6,1-1.6,1.7-2.5,2.4c-1.4,1.1-2.7,2.1-2.7,3.9v35.2C568,124.6,569.3,125.6,570.7,126.7z"/>
	<g>
		<g>
			<path class="st3" d="M304.8,140.6"/>
		</g>
	</g>
	<g>
		<g>
			<path class="st3" d="M340.5,158.5"/>
		</g>
	</g>
	<g>
		<g>
			<path class="st3" d="M287.9,132"/>
		</g>
	</g>
	<g>
		<g>
			<path class="st3" d="M254,137.2"/>
		</g>
	</g>
	<g>
		<g>
			<path class="st3" d="M386.8,96.6"/>
		</g>
	</g>
	<g>
		<g>
			<path class="st3" d="M271.8,129.1"/>
		</g>
	</g>
	<g>
		<g>
			<path class="st3" d="M341.6,92.5"/>
		</g>
	</g>
	<g>
		<g>
			<path class="st3" d="M404.4,153.7"/>
		</g>
	</g>
	<g>
		<g>
			<path class="st3" d="M372.5,113.8"/>
		</g>
	</g>
	<g>
		<g>
			<path class="st3" d="M323.6,149.6"/>
		</g>
	</g>
	<g>
		<g>
			<path class="st0" d="M214.6,119.1c2,0,3.9,0.5,5.8,2.1c0.6,0.5,1.2,1,1.7,1.5c1.3,1.3,1.2,3.4-0.2,4.5c-1.4,1.2-3.1,2.3-4.1,3
				c-2.4,1.6-6.4,4.6-9.2,2.2c-1.4-1.2,1.4-3.1,0.2-7.9C207.9,120.8,211.7,119.1,214.6,119.1z"/>
		</g>
	</g>
	<g>
		<g>
			<path class="st4" d="M223.8,74.3"/>
		</g>
	</g>
	<g>
		<g>
			<path class="st0" d="M373.4,167c-19.9,0-38.5-8.7-57.4-18.4c-2.1-1.1-4.5-2.4-7-3.7c-15.2-8.3-38-20.8-52.9-13
				c-0.1,2-0.5,3.8-1.1,5.5c-2.3,6.3-9.9,12.8-13.5,15.4c-8.3,6-18.6,12.1-31.4,12.1c-2,0-3.9-0.3-5.5-0.9c-2.5-0.8-4.6-2.3-6.1-4.3
				c-0.7-1-1.4-2.1-1.9-3.2c-0.4-1-0.7-2-0.8-3.1c-5.3-1.6-8.6-5.2-8.6-9.6c0-3.3,2.3-6,4.5-8.6c3.6-4.3,5.2-6.5,1.6-9.9
				c-0.4-0.4-0.8-0.7-1.3-1c-0.7-0.5-1.4-1-2-1.7c-4.4-4.8-2-14-0.5-19.6l0.2-0.6c1.6-5.9,3.9-12,7.3-18.7c4.5-9,10-19.2,17.8-25.6
				c0.4-0.3,0.9-0.5,1.4-0.4c0.5,0.1,1,0.4,1.3,0.8c0.3,0.4,3.4,5.2,6.6,11.4c13.5-8.1,32.7-9,34.9-9.1c11.9-0.4,29.1,1.4,43.8,12.7
				c9.1,7,16.6,15.7,23.9,24.2c1.9,2.2,3.9,4.5,5.8,6.7c11.2,12.6,21.8,22.5,32.5,30.2c8.1,5.9,20.8,9.1,29.3,2.1
				c3.1-2.5,4.4-7.2,3.4-11.5c-0.9-3.8-3.4-6.4-6.8-7.2c-6.1-1.3-11.2,4.8-15.3,11c-0.4,0.6-1,0.9-1.7,0.8c-0.7-0.1-1.3-0.5-1.5-1.1
				c-4.2-10-4.3-18.3-0.5-24.7c3.3-5.5,9.6-9.3,17.1-10.5c-0.1-11.7,2.7-20.3,8.5-25.5c3.5-3.2,10-6.7,20.7-5.2
				c0.6,0.1,1.1,0.4,1.3,0.9c0.3,0.5,0.3,1.1,0.1,1.6c-7.4,17.9-5.6,24.6-1.5,39.3c0.4,1.3,0.7,2.7,1.1,4.2c3.9,14.5,2.7,27-3.6,37
				c-10.1,16.2-29.6,20.1-30.4,20.3C381.1,166.7,377.2,167,373.4,167z M267.3,125.7c14.4,0,30.7,9,43.6,16c2.5,1.3,4.8,2.6,6.9,3.7
				c21.9,11.3,43.4,21.1,66.6,17c0.2,0,18.7-3.8,28-18.6c5.7-9.1,6.8-20.6,3.1-34.1c-0.4-1.5-0.8-2.8-1.1-4.2c-3.8-14-6-22,0.8-39.4
				c-7.9-0.5-12.7,2.1-15.4,4.6c-5.2,4.7-7.6,12.9-7.2,24.4c0,1-0.7,1.8-1.6,1.9c-7.1,0.7-13.1,4.1-16,9c-2.8,4.7-3,10.9-0.5,18.3
				c3.5-4.8,9.5-11.3,17.2-9.6c4.8,1.1,8.4,4.8,9.6,9.9c1.4,5.7-0.5,11.8-4.6,15.2c-10,8.2-24.5,4.8-33.8-2
				c-10.9-7.9-21.7-18-33-30.8c-2-2.2-3.9-4.5-5.9-6.7c-7.2-8.3-14.5-16.9-23.4-23.7c-13.8-10.7-30.1-12.4-41.4-12
				c-7.7,0.3-23.1,2.4-33.4,8.7c3.2,6.6,6,14.1,6,20c0,1-0.2,2.1-0.6,3.1c7.5-4.4,16.4-1.3,21.5,4.2c1.1,1.2,2.3,3,3.6,5
				c2,3,4.2,6.3,6.8,8.9c0.4,0.4,0.6,0.9,0.6,1.5c0,0.5-0.3,1-0.8,1.4c0,0-4.8,3.4-11.5,8.4c-0.9,0.7-1.9,1.3-2.7,1.9
				c-0.2,0.1-0.3,0.2-0.5,0.3l5.9,1C258.2,126.6,262.6,125.7,267.3,125.7z M215.5,62.3c-6.4,6.1-11.2,15-15.3,23.1
				c-3.2,6.4-5.5,12.3-7,17.9l-0.2,0.6c-1.1,4.2-3.4,12.9-0.4,16.2c0.4,0.4,0.9,0.8,1.5,1.3c0.5,0.4,1.1,0.8,1.6,1.3
				c6.3,6,1.9,11.1-1.3,14.9c-1.9,2.2-3.6,4.3-3.6,6.3c0,4.4,5.4,6,7,6.3c0.8,0.2,1.4,0.8,1.4,1.7c0.1,1.3,0.2,2.2,0.7,3.2
				c0.4,0.9,0.8,1.7,1.4,2.4c1.1,1.4,2.6,2.5,4.4,3.1c1.3,0.4,2.7,0.7,4.3,0.7c11.8,0,21.4-5.8,29.3-11.4
				c4.7-3.3,10.6-9.3,12.2-13.7c0.4-1.2,0.7-2.4,0.8-3.8l-8.3-1.4c-0.1,0-0.1,0-0.2-0.1c-0.9-0.3-1.5-0.9-1.6-1.7
				c-0.3-1.7,1.2-2.7,4.1-4.6c0.9-0.6,1.8-1.2,2.6-1.8c4.3-3.2,7.9-5.8,9.8-7.2c-2.3-2.6-4.2-5.5-5.8-7.9c-1.2-1.9-2.3-3.5-3.2-4.5
				c-4.1-4.4-11.3-7.1-17.2-3.4c-2.4,1.5-4.4,3.3-6.6,5.2c-1.8,1.6-3.6,3.2-5.6,4.6c-0.8,0.6-1.9,0.4-2.5-0.3
				c-0.6-0.7-0.5-1.8,0.1-2.5c0.3-0.3,0.6-0.5,0.9-0.9c2.7-2.5,8.9-8.4,8.9-12.6C228.1,83.5,218.8,67.7,215.5,62.3z"/>
		</g>
	</g>
	<g>
		<g>
			<path class="st0" d="M203.2,154.4c-1.7,0-3.5-0.1-5.3-0.3c-1-0.1-1.7-1-1.6-2c0.1-1,1-1.7,2-1.6c8.3,1,20.5-0.1,31.2-11.1
				c0.7-0.7,1.9-0.7,2.6,0c0.7,0.7,0.7,1.9,0,2.6C224.1,150.1,214.2,154.4,203.2,154.4z"/>
		</g>
	</g>
	<g>
		<g>
			<path class="st0" d="M350.2,126.8c-0.2,0-0.5,0-0.7-0.1c-0.9-0.4-1.3-1.4-0.9-2.3c1.9-4.4,2.2-8.1,0.8-10.8
				c-1.9-3.8-6.3-4.8-6.3-4.8c-0.5-0.1-0.9-0.4-1.1-0.9c-0.2-0.4-0.3-0.9-0.1-1.4c0.6-1.7,2.1-6.7,1.2-9.3c-0.8-2.2-4.9-3.1-6.2-3.2
				c-0.5-0.1-1-0.4-1.3-0.8c-0.3-0.5-0.3-1-0.1-1.5c0.6-1.4,1.7-5.4,0.4-7.6c-2.7-4.2-9.8-2.2-9.9-2.1c-0.6,0.2-1.3,0-1.7-0.5
				c-0.4-0.5-0.6-1.1-0.4-1.7c0-0.1,2.1-6.5-1.9-10.6c-4.7-4.8-14.7-2-14.8-1.9c-0.6,0.2-1.3,0-1.7-0.5c-0.4-0.5-0.6-1.1-0.4-1.7
				c0.1-0.2,1.7-5.5-1.9-7.8c-5.7-3.6-12.2,1-12.3,1.1c-0.5,0.4-1.1,0.4-1.7,0.2c-0.6-0.2-0.9-0.8-1-1.4c0-0.3-1-7.3-7.1-8.1
				c-6.6-0.9-13.7,5.9-13.7,6c-0.4,0.3-0.8,0.5-1.3,0.5c-0.5,0-0.9-0.3-1.2-0.7c0-0.1-4.7-6.1-10.6-5.8c-5.7,0.3-7.9,6-7.9,6.1
				c-0.2,0.5-0.7,0.9-1.2,1.1c-0.6,0.1-1.2,0-1.6-0.5c-0.1-0.1-5.7-5.4-11.4-3.3c-7.3,2.7-9.3,11.5-10,14.5l0,0.1
				c-0.2,0.9-1.1,1.5-2.1,1.3c-0.9-0.2-1.5-1.1-1.3-2.1l0-0.1c0.8-3.4,3.2-13.6,12.2-16.9c5.6-2,10.7,0.8,13.3,2.6
				c1.5-2.4,4.5-6,9.9-6.2c5.7-0.3,10.2,3.6,12.3,5.8c2.7-2.2,8.8-6.6,15.2-5.8c5.6,0.8,8.4,5.2,9.5,8.6c3-1.5,8.6-3.3,14,0.1
				c3.7,2.4,4.1,6.3,3.8,9c3.9-0.7,11.2-1.1,15.6,3.4c3.6,3.7,3.7,8.4,3.3,11.4c3.2-0.4,8.3-0.2,11.1,4.1c1.8,2.8,1.2,6.5,0.6,8.8
				c2.3,0.6,5.9,1.9,7,5.1c1.1,3.1,0.1,7.5-0.6,10c2,0.8,5.1,2.6,6.8,6c1.9,3.7,1.7,8.4-0.7,13.8
				C351.5,126.5,350.9,126.8,350.2,126.8z"/>
		</g>
	</g>
	<g>
		<g>
			<path class="st0" d="M341.7,150.5c-0.1,0-0.1,0-0.2,0c-0.9-0.1-1.6-1-1.5-1.9c0.8-6.6-3.1-7.8-6.5-8.8c-0.9-0.3-1.7-0.5-2.3-0.9
				c-1.8-1-1.9-3.2-2-5.5c-0.1-2.4-0.2-5.2-2-7.3c-3.2-3.6-9.5-1.3-9.6-1.2c-0.6,0.2-1.2,0.1-1.7-0.3c-0.5-0.4-0.7-1-0.6-1.6
				c0-0.1,1-7-3-10.4c-3.4-2.9-9.8-2.2-12-1.7c-0.5,0.1-1.1,0-1.5-0.4c-0.4-0.4-0.6-0.9-0.6-1.4c0.3-4.3-1.4-8-4.7-10.1
				c-2.8-1.8-6.2-2.1-8.8-0.6c-7.2,3.9-10,4.1-17.6-1.2c-2.4-1.7-4.7-2.2-7-1.6c-2.9,0.7-5.5,3.3-7.5,7.2c-0.4,0.8-1.4,1.2-2.3,0.8
				c-0.8-0.4-1.2-1.4-0.8-2.3c2.4-4.8,5.8-8.1,9.7-9c3.2-0.8,6.6-0.1,9.8,2.2c6.4,4.5,7.8,4.3,14,1c3.7-2,8.4-1.7,12.3,0.8
				c3.7,2.4,6,6.5,6.3,11.1c3.1-0.4,9-0.5,12.9,2.8c3.7,3.1,4.3,8,4.3,11c2.9-0.5,7.7-0.7,10.9,2.8c2.7,3,2.8,6.7,2.9,9.5
				c0,0.9,0.1,2.3,0.3,2.7c0.3,0.2,0.9,0.4,1.5,0.5c3.2,1,10,3.1,8.8,12.5C343.3,149.9,342.5,150.5,341.7,150.5z"/>
		</g>
	</g>
	<g>
		<g>
			<g>
				<path class="st0" d="M171.4,125.8c-1.4-1.1-2.2-1.8-2.2-2.9V87.6c0-1.1,0.8-1.8,2.2-2.9c0.9-0.7,2-1.5,2.7-2.6
					c0.8-1.2,1.2-2.7,1.2-4.1c0-1.5-0.4-2.9-1.2-4.1c-0.8-1.1-1.8-1.9-2.7-2.6c-1.4-1.1-2.2-1.8-2.2-2.9V55.9h-2.8v0
					c-6.5,0-13.5-0.1-18.1-2c-1.8-0.8-3.5-1.8-5.2-2.9c-4-2.5-8.6-5.4-15.6-5.4c-5.5,0-10.6,2-15,3.8c-3,1.2-5.8,2.3-7.8,2.3h-0.4h0
					h0h0h-0.4c-2,0-4.8-1.1-7.8-2.3c-4.5-1.8-9.5-3.8-15-3.8c-7,0-11.5,2.9-15.6,5.4c-1.8,1.1-3.5,2.2-5.2,2.9
					c-4.5,1.9-11.5,2-18.1,2v0h-2.8v12.3c0,1.1-0.8,1.8-2.2,2.9c-0.9,0.7-2,1.5-2.7,2.6c-0.8,1.2-1.2,2.7-1.2,4.1
					c0,1.5,0.4,2.9,1.2,4.1c0.8,1.1,1.8,1.9,2.7,2.6c1.4,1.1,2.2,1.8,2.2,2.9v35.2c0,1.1-0.8,1.8-2.2,2.9c-0.9,0.7-2,1.5-2.7,2.6
					c-0.8,1.2-1.2,2.7-1.2,4.1c0,1.5,0.4,2.9,1.2,4.1c0.8,1.1,1.8,1.9,2.7,2.6c1.4,1.1,2.2,1.8,2.2,2.9v11.8l-0.1,0.2h0.1v0l64.9,0
					l64.9,0v0h0.1l-0.1-0.2v-11.8c0-1.1,0.8-1.8,2.2-2.9c0.9-0.7,2-1.5,2.7-2.6c0.8-1.2,1.2-2.7,1.2-4.1c0-1.5-0.4-2.9-1.2-4.1
					C173.4,127.3,172.3,126.5,171.4,125.8z M114,53.2c4.1-1.7,8.8-3.5,13.5-3.5c5.8,0,9.5,2.3,13.4,4.8c1.8,1.2,3.7,2.3,5.8,3.2
					c1.7,0.7,3.5,1.2,5.4,1.6V134c-3.1-0.5-6.4-0.5-9.9-0.5c-5.4,0-10.9,0-16.3-1.7c-1.8-0.6-3.7-1.1-5.4-1.7
					c-5.5-1.8-10.4-3.3-13.8-3.6c-0.1,0-0.1,0-0.2,0V55.6C108.7,55.3,111.2,54.3,114,53.2z M61.9,57.6c2.1-0.9,4-2.1,5.8-3.2
					c3.9-2.5,7.6-4.8,13.4-4.8c4.7,0,9.4,1.9,13.5,3.5c2.9,1.2,5.4,2.2,7.8,2.5v70.8c-0.1,0-0.3,0-0.4,0.1
					c-3.4,0.3-8.3,1.9-13.8,3.6c-1.8,0.6-3.6,1.2-5.4,1.7c-5.3,1.6-10.9,1.6-16.3,1.7c-3.5,0-6.9,0-9.9,0.5V59.2
					C58.4,58.9,60.2,58.4,61.9,57.6z M171.7,132.6c0,0.8-0.2,1.5-0.6,2.1c-0.4,0.6-1.2,1.2-1.9,1.8c-1.6,1.3-3.6,2.8-3.6,5.8v7.8
					h-61.3h0H43v-7.8c0-2.9-2-4.5-3.6-5.8c-0.8-0.6-1.5-1.2-1.9-1.8c-0.4-0.6-0.6-1.3-0.6-2.1l0-0.1l0-0.1c0-0.8,0.2-1.5,0.6-2.1
					c0.4-0.6,1.2-1.2,1.9-1.8c1.6-1.3,3.6-2.8,3.6-5.8V87.6c0-2.9-2-4.5-3.6-5.8c-0.8-0.6-1.5-1.2-1.9-1.8c-0.4-0.6-0.6-1.3-0.6-2.1
					l0-0.1l0-0.1c0-0.8,0.2-1.5,0.6-2.1c0.4-0.6,1.2-1.2,1.9-1.8c1.6-1.3,3.6-2.8,3.6-5.8V60c0.1,0,0.2,0,0.3,0c3.2,0,6.3,0,9.2-0.3
					v81h44.6c0.8,3.2,3.8,5.6,7.2,5.6s6.4-2.4,7.2-5.6h44.6h0v-81c2.9,0.2,6,0.3,9.2,0.3c0.1,0,0.2,0,0.3,0v8.2c0,2.9,2,4.5,3.6,5.8
					c0.8,0.6,1.5,1.2,1.9,1.8c0.4,0.6,0.6,1.3,0.6,2.1l0,0.1l0,0.1c0,0.8-0.2,1.5-0.6,2.1c-0.4,0.6-1.2,1.2-1.9,1.8
					c-1.6,1.3-3.6,2.8-3.6,5.8v35.2c0,2.9,2,4.5,3.6,5.8c0.8,0.6,1.5,1.2,1.9,1.8c0.4,0.6,0.6,1.3,0.6,2.1V132.6L171.7,132.6z"/>
			</g>
		</g>
		<g>
			<g>
				<path class="st0" d="M571.4,125.8c-1.4-1.1-2.2-1.8-2.2-2.9V87.6c0-1.1,0.8-1.8,2.2-2.9c0.9-0.7,2-1.5,2.7-2.6
					c0.8-1.2,1.2-2.7,1.2-4.1c0-1.5-0.4-2.9-1.2-4.1c-0.8-1.1-1.8-1.9-2.7-2.6c-1.4-1.1-2.2-1.8-2.2-2.9V55.9h-2.8v0
					c-6.5,0-13.5-0.1-18.1-2c-1.8-0.8-3.5-1.8-5.2-2.9c-4-2.5-8.6-5.4-15.6-5.4c-5.5,0-10.6,2-15,3.8c-3,1.2-5.8,2.3-7.8,2.3h-0.4h0
					h0h0h-0.4c-2,0-4.8-1.1-7.8-2.3c-4.5-1.8-9.5-3.8-15-3.8c-7,0-11.5,2.9-15.6,5.4c-1.8,1.1-3.5,2.2-5.2,2.9
					c-4.5,1.9-11.5,2-18.1,2v0h-2.8v12.3c0,1.1-0.8,1.8-2.2,2.9c-0.9,0.7-2,1.5-2.7,2.6c-0.8,1.2-1.2,2.7-1.2,4.1
					c0,1.5,0.4,2.9,1.2,4.1c0.8,1.1,1.8,1.9,2.7,2.6c1.4,1.1,2.2,1.8,2.2,2.9v35.2c0,1.1-0.8,1.8-2.2,2.9c-0.9,0.7-2,1.5-2.7,2.6
					c-0.8,1.2-1.2,2.7-1.2,4.1c0,1.5,0.4,2.9,1.2,4.1c0.8,1.1,1.8,1.9,2.7,2.6c1.4,1.1,2.2,1.8,2.2,2.9v11.8l-0.1,0.2h0.1v0l64.9,0
					l64.9,0v0h0.1l-0.1-0.2v-11.8c0-1.1,0.8-1.8,2.2-2.9c0.9-0.7,2-1.5,2.7-2.6c0.8-1.2,1.2-2.7,1.2-4.1c0-1.5-0.4-2.9-1.2-4.1
					C573.4,127.3,572.4,126.5,571.4,125.8z M514,53.2c4.1-1.7,8.8-3.5,13.5-3.5c5.8,0,9.5,2.3,13.4,4.8c1.8,1.2,3.7,2.3,5.8,3.2
					c1.7,0.7,3.5,1.2,5.4,1.6V134c-3.1-0.5-6.4-0.5-9.9-0.5c-5.4,0-10.9,0-16.3-1.7c-1.8-0.6-3.7-1.1-5.4-1.7
					c-5.5-1.8-10.4-3.3-13.8-3.6c-0.1,0-0.1,0-0.2,0V55.6C508.8,55.3,511.3,54.3,514,53.2z M461.9,57.6c2.1-0.9,4-2.1,5.8-3.2
					c3.9-2.5,7.6-4.8,13.4-4.8c4.7,0,9.4,1.9,13.5,3.5c2.9,1.2,5.4,2.2,7.8,2.5v70.8c-0.1,0-0.3,0-0.4,0.1
					c-3.4,0.3-8.3,1.9-13.8,3.6c-1.8,0.6-3.6,1.2-5.4,1.7c-5.3,1.6-10.9,1.6-16.3,1.7c-3.5,0-6.9,0-9.9,0.5V59.2
					C458.4,58.9,460.3,58.4,461.9,57.6z M571.8,132.6c0,0.8-0.2,1.5-0.6,2.1c-0.4,0.6-1.2,1.2-1.9,1.8c-1.6,1.3-3.6,2.8-3.6,5.8v7.8
					h-61.3h0H443v-7.8c0-2.9-2-4.5-3.6-5.8c-0.8-0.6-1.5-1.2-1.9-1.8c-0.4-0.6-0.6-1.3-0.6-2.1l0-0.1l0-0.1c0-0.8,0.2-1.5,0.6-2.1
					c0.4-0.6,1.2-1.2,1.9-1.8c1.6-1.3,3.6-2.8,3.6-5.8V87.6c0-2.9-2-4.5-3.6-5.8c-0.8-0.6-1.5-1.2-1.9-1.8c-0.4-0.6-0.6-1.3-0.6-2.1
					l0-0.1l0-0.1c0-0.8,0.2-1.5,0.6-2.1c0.4-0.6,1.2-1.2,1.9-1.8c1.6-1.3,3.6-2.8,3.6-5.8V60c0.1,0,0.2,0,0.3,0c3.2,0,6.3,0,9.2-0.3
					v81h44.6c0.8,3.2,3.8,5.6,7.2,5.6s6.4-2.4,7.2-5.6h44.6h0v-81c2.9,0.2,6,0.3,9.2,0.3c0.1,0,0.2,0,0.3,0v8.2c0,2.9,2,4.5,3.6,5.8
					c0.8,0.6,1.5,1.2,1.9,1.8c0.4,0.6,0.6,1.3,0.6,2.1l0,0.1l0,0.1c0,0.8-0.2,1.5-0.6,2.1c-0.4,0.6-1.2,1.2-1.9,1.8
					c-1.6,1.3-3.6,2.8-3.6,5.8v35.2c0,2.9,2,4.5,3.6,5.8c0.8,0.6,1.5,1.2,1.9,1.8c0.4,0.6,0.6,1.3,0.6,2.1V132.6L571.8,132.6z"/>
			</g>
		</g>
	</g>
	<path class="st0" d="M596.6,11.4H12c0,0,0,287.6,0,291.4c-0.4,127.7,70.7,220.4,130.3,275.8c65.1,60.3,138.3,96.2,161.4,101.3
		l0.6,0.1l0.6-0.1c23-5,96.3-40.9,161.4-101.3c59.7-55.3,130.7-148.1,130.3-275.8C596.6,299,596.6,11.4,596.6,11.4z M588.5,19.5
		c0,18.6,0,97.6,0,167.5H20.1c0-69.9,0-148.9,0-167.5H588.5z M132.9,471.1c-19.6-19.6-19.6-51.3,0-70.8c19.6-19.6,51.3-19.6,70.8,0
		c19.6,19.6,19.6,51.3,0,70.8C184.2,490.6,152.5,490.6,132.9,471.1z M460.7,572.6c-67.6,62.7-137.7,94.3-156.4,99
		c-18.8-4.7-88.8-36.3-156.4-99c-1.6-1.5-3.3-3.1-5-4.7l161.4-171.3L465.7,568C464,569.6,462.4,571.1,460.7,572.6z M254.3,311.5
		c0-27.6,22.4-50.1,50.1-50.1c27.6,0,50.1,22.4,50.1,50.1c0,27.6-22.4,50.1-50.1,50.1C276.7,361.5,254.3,339.1,254.3,311.5z
		 M475.7,471.1c-19.6,19.6-51.3,19.6-70.8,0c-19.6-19.6-19.6-51.3,0-70.8c19.6-19.6,51.3-19.6,70.8,0
		C495.3,419.8,495.3,451.5,475.7,471.1z M556.1,445.8L304.3,202.9L52.5,445.8C33,404.6,20,356.9,20.1,302.8c0-1.6,0-50.6,0-107.7
		h568.3c0,57.1,0,106.1,0,107.7C588.7,356.9,575.7,404.6,556.1,445.8z"/>
</g>
</svg>
